<?xml version="1.0" encoding="UTF-8"?>
<svg version="1.1" xmlns="http://www.w3.org/2000/svg" width="500" height="463">
<path d="M0 0 C4.06077102 3.60288769 8.04659198 7.27981461 12 11 C12.65871094 11.61617187 13.31742187 12.23234375 13.99609375 12.8671875 C19.14592886 17.83862185 23.59316851 23.37022006 28 29 C28.4336084 29.55187988 28.8672168 30.10375977 29.31396484 30.67236328 C36.51622629 39.91608794 42.46023991 49.5600201 47.90380859 59.93066406 C48.86109441 61.73778089 49.85889297 63.52331961 50.86328125 65.3046875 C60.24992665 82.61064062 65.83452297 102.6323381 69 122 C69.22300781 123.25941406 69.44601562 124.51882812 69.67578125 125.81640625 C73.66460541 152.70705076 74.41629475 191.1674105 62 216 C63.134375 215.9175 64.26875 215.835 65.4375 215.75 C71.6510756 215.75 76.52831553 218.44801207 81.6875 221.6875 C88.3161602 228.3161602 92.27748985 235.77391936 92.3125 245.25 C92.28685234 249.7537292 91.74579945 253.18526545 90.125 257.375 C89.21359503 259.72243659 89.21359503 259.72243659 89 262 C90.18346872 264.16969265 91.59185423 265.59275006 93.359375 267.3125 C97.70262045 271.77983818 98.21706945 277.30398989 98.4375 283.3125 C98.36129086 288.01024941 97.61115113 291.54513452 95.8125 295.875 C94.00687044 300.13298252 94.00687044 300.13298252 95.1875 304.6875 C95.785625 305.780625 96.38375 306.87375 97 308 C98.78383636 316.37030906 97.58691678 323.60994517 93.4375 331.125 C77.08874453 356.13586457 34.44792782 366.89027928 7.3125 372.875 C-23.57596868 379.27772681 -58.849453 383.25944127 -87.39355469 366.76855469 C-90.01620705 364.98900301 -91.85227845 363.08458385 -94 360.76953125 C-97.80047173 357.34474466 -100.10838013 356.47164843 -105.22265625 356.65625 C-107.50730554 356.89633686 -109.78775394 357.1793843 -112.0625 357.5 C-114.48397519 357.75897436 -116.90585365 358.01420639 -119.328125 358.265625 C-120.48505859 358.39775391 -121.64199219 358.52988281 -122.83398438 358.66601562 C-134.99240838 359.9486131 -147.05616554 358.66899726 -159.1640625 357.4375 C-165.91082821 356.34588316 -165.91082821 356.34588316 -171.9921875 358.46875 C-172.61351562 359.1390625 -173.23484375 359.809375 -173.875 360.5 C-190.91023925 376.59359286 -215.75363933 378.73818364 -238.04833984 378.13623047 C-275.94593383 376.38711075 -330.03397186 364.77315898 -358 337 C-365.35884023 327.3314508 -366.87148416 320.09184268 -366 308 C-365.1875 305.65625 -365.1875 305.65625 -364.25 303.75 C-362.62452871 298.87358613 -363.91755962 297.24806874 -365.98828125 292.76953125 C-368.8414685 284.95906886 -367.59786009 276.52943046 -364.22265625 269.1015625 C-362.50599532 266.15088013 -360.61644247 264.18036872 -358 262 C-358.32484375 261.14341797 -358.32484375 261.14341797 -358.65625 260.26953125 C-361.5732826 251.77502429 -362.8760635 242.62829989 -359.3125 234.125 C-358.57612659 232.73124133 -357.80631296 231.35449933 -357 230 C-356.66097656 229.37480469 -356.32195312 228.74960937 -355.97265625 228.10546875 C-352.1903014 221.92717382 -345.76483715 218.25494572 -339 216 C-337.43881572 215.93259135 -335.8749748 215.91485544 -334.3125 215.9375 C-333.50425781 215.94652344 -332.69601562 215.95554687 -331.86328125 215.96484375 C-330.94095703 215.98224609 -330.94095703 215.98224609 -330 216 C-330.24234375 215.23300781 -330.4846875 214.46601563 -330.734375 213.67578125 C-332.974413 206.25780924 -334.73304387 198.85745558 -336.1875 191.25 C-336.35411133 190.38802002 -336.52072266 189.52604004 -336.69238281 188.63793945 C-342.75379552 156.01272785 -339.4734606 121.32781333 -329 90 C-328.76023437 89.27780273 -328.52046875 88.55560547 -328.2734375 87.81152344 C-324.75530451 77.41660028 -320.15282462 67.67580445 -315 58 C-314.68836914 57.40477539 -314.37673828 56.80955078 -314.05566406 56.19628906 C-292.49223844 15.28282647 -255.06086513 -15.8793124 -213 -34 C-212.36835938 -34.27295898 -211.73671875 -34.54591797 -211.0859375 -34.82714844 C-141.61237484 -64.2226046 -56.43693966 -49.29932671 0 0 Z M-253 14 C-253.82757813 14.71800781 -254.65515625 15.43601563 -255.5078125 16.17578125 C-292.2216414 48.57372117 -315.18185153 92.549761 -318.85498047 141.65039062 C-319.99491429 160.1196215 -318.87436817 179.0919952 -314 197 C-313.505 196.01 -313.505 196.01 -313 195 C-311.21484375 194.0078125 -311.21484375 194.0078125 -309 193 C-307.95005859 192.47019531 -307.95005859 192.47019531 -306.87890625 191.9296875 C-298.94245614 188.31612674 -291.23787511 187.50437345 -282.78515625 189.91796875 C-273.06631501 193.70500777 -266.11376953 199.54015519 -259 207 C-258.01 207.99 -258.01 207.99 -257 209 C-256.43152344 208.45730469 -255.86304688 207.91460937 -255.27734375 207.35546875 C-248.21078258 200.8079872 -242.54549663 197.65454966 -232.875 196.6875 C-223.5986945 197.43558915 -216.22182493 201.12978089 -210 208 C-204.95719703 213.94923085 -202.16309213 220.97626157 -199.09936523 228.05834961 C-192.5231268 243.13038556 -183.7193929 256.14595792 -172.375 268.0625 C-159.94762964 281.15023616 -151.43374726 296.50925772 -151.73828125 314.875 C-152.17543776 320.09477926 -153.52239737 324.99056668 -155 330 C-155.21269531 330.76183594 -155.42539063 331.52367187 -155.64453125 332.30859375 C-156.08295758 333.87620443 -156.53877889 335.43894395 -157 337 C-152.35908635 337.90931025 -147.86576079 338.14650014 -143.15234375 338.1328125 C-142.05086754 338.13424759 -142.05086754 338.13424759 -140.92713928 338.13571167 C-139.38331008 338.13638875 -137.83947795 338.13456758 -136.2956543 338.13037109 C-133.9411782 338.12500838 -131.58689217 338.13033608 -129.23242188 338.13671875 C-127.72656208 338.13605803 -126.22070241 338.13477701 -124.71484375 338.1328125 C-123.66622414 338.13584885 -123.66622414 338.13584885 -122.59642029 338.13894653 C-118.93891817 338.12150372 -115.55708326 337.86678351 -112 337 C-112.19335938 336.39414062 -112.38671875 335.78828125 -112.5859375 335.1640625 C-117.80821482 318.3597048 -119.15944929 303.51091757 -110.8125 287.3125 C-106.4085788 279.64471236 -101.09884833 273.19342068 -95.02587891 266.79638672 C-82.49787361 253.5260458 -73.0146353 237.38493767 -66.3125 220.4375 C-62.5759254 211.11519272 -56.53751973 204.08823216 -47.75 199.1875 C-39.15791597 196.46667339 -31.28673553 196.16583879 -23 200 C-20.14913673 201.80702387 -17.58311362 203.83424535 -15 206 C-13.67171705 207.00669866 -12.33968006 208.00851872 -11 209 C-10.45472656 208.34773437 -9.90945313 207.69546875 -9.34765625 207.0234375 C-1.34009344 197.74287753 7.8426198 190.12754854 20.39453125 188.58203125 C28.54352048 188.25536538 34.15132662 189.65066359 41 194 C42.66625296 195.00068919 44.33281649 196.00086191 46 197 C57.8178553 153.11636397 49.8473905 104.18203261 27.78417969 64.83154297 C19.47360426 50.52401935 9.38874018 37.94992448 -2 26 C-2.76570313 25.16984375 -3.53140625 24.3396875 -4.3203125 23.484375 C-15.72338964 11.50148037 -29.52282444 1.90110259 -44 -6 C-44.62696777 -6.34369629 -45.25393555 -6.68739258 -45.89990234 -7.04150391 C-66.34276811 -18.09548689 -88.89287414 -25.33260024 -112 -28 C-112.90878906 -28.11085938 -113.81757813 -28.22171875 -114.75390625 -28.3359375 C-163.50776509 -33.35371991 -215.9371598 -18.61760858 -253 14 Z M-297.8125 210.8125 C-301.05607624 215.53885395 -301.00347361 219.43939813 -300 225 C-295.39761089 237.84920399 -281.5936094 248.44864766 -272.125 257.8125 C-257.58179125 272.22190974 -257.58179125 272.22190974 -255 281 C-256.71484375 282.109375 -256.71484375 282.109375 -259 283 C-266.29942656 281.17839622 -271.73369689 275.76054017 -277.03125 270.73828125 C-281.78310903 266.27542977 -286.97915951 262.35298037 -292.15869141 258.40429688 C-293.39082839 257.4645923 -294.61965987 256.52053838 -295.84521484 255.57226562 C-313.60578934 241.27844468 -313.60578934 241.27844468 -335 237 C-338.51486382 240.00227952 -339.88340768 241.74080299 -340.3125 246.375 C-334.90432128 261.31187455 -311.82235781 270.12989189 -298.95605469 277.75830078 C-293.43038377 281.06161936 -288.19940803 284.54785811 -283.09375 288.4765625 C-281.07604036 290.05581606 -281.07604036 290.05581606 -278.84375 290.9609375 C-276.44517121 292.31267894 -275.90032589 293.41968456 -275 296 C-274.8046875 298.359375 -274.8046875 298.359375 -274.875 300.75 C-274.89304687 301.54921875 -274.91109375 302.3484375 -274.9296875 303.171875 C-274.95289063 303.77515625 -274.97609375 304.3784375 -275 305 C-284.2911585 301.80616427 -292.53341059 296.89067512 -301 292 C-319.81718518 280.01987838 -319.81718518 280.01987838 -341 276 C-343.48105194 276.90235835 -343.48105194 276.90235835 -345 279 C-346.23008122 283.07464405 -346.37870571 285.1565191 -344.625 289.0625 C-336.43400328 298.22861538 -324.38141472 301.93635154 -313.1953125 306.23828125 C-312.17453613 306.63233154 -311.15375977 307.02638184 -310.10205078 307.43237305 C-308.06955828 308.21379331 -306.03415115 308.98768386 -303.99560547 309.75317383 C-291.47320468 314.54465887 -291.47320468 314.54465887 -288.5 319.5 C-287.89890994 322.50545032 -288.54613337 323.4006627 -290 326 C-298.03456621 325.70979379 -303.4855621 323.07416099 -310.4375 319.1875 C-324.82213291 310.49798673 -324.82213291 310.49798673 -341 309 C-343.77564845 310.35762154 -343.77564845 310.35762154 -345 313 C-345.3535296 316.67670789 -344.8195287 318.85741071 -342.65234375 321.87890625 C-324.52776317 340.30122121 -287.82794754 348.29218221 -263 352 C-261.96335205 352.16918945 -261.96335205 352.16918945 -260.90576172 352.34179688 C-239.27011396 355.79859146 -209.02842318 358.88804548 -190 346 C-181.8016218 339.56696601 -175.69960544 330.05985046 -173 320 C-171.79373883 307.37633656 -173.81179142 298.24055972 -181.82421875 288.4609375 C-183.92935543 286.07990319 -186.08670535 283.76238182 -188.26806641 281.45166016 C-202.72421605 266.10885448 -213.34132558 248.47183507 -221.22509766 228.92480469 C-223.12317846 224.36899337 -225.08162712 221.19252045 -229 218 C-232.5 217.16666667 -232.5 217.16666667 -236 218 C-239.94743455 221.15794764 -242.43778558 224.33401547 -243.484375 229.296875 C-244.49783109 238.65644004 -242.75381545 246.38140854 -237 254 C-234.52093438 256.45086437 -231.90528534 258.74547716 -229.18994141 260.9309082 C-225.26044958 264.22534946 -223.88330231 266.97288348 -223 272 C-223.875 274.375 -223.875 274.375 -226 276 C-230.54477584 277.11756783 -232.63203789 277.51717793 -237.02734375 275.85546875 C-240.48084385 273.69986751 -241.73796884 271.89160313 -243.75 268.375 C-244.24632935 267.52772339 -244.24632935 267.52772339 -244.75268555 266.66333008 C-245.85036956 264.78394277 -246.9257087 262.89284382 -248 261 C-263.70822688 231.51231054 -263.70822688 231.51231054 -287.6875 209.5625 C-292.02338512 208.50782524 -293.94433406 208.31968195 -297.8125 210.8125 Z M-5 235 C-10.54350142 243.52016099 -15.83032229 252.20944822 -20.90625 261.015625 C-21.35669678 261.79502441 -21.80714355 262.57442383 -22.27124023 263.37744141 C-23.10754477 264.83310779 -23.93573704 266.2934774 -24.75415039 267.75927734 C-27.18984457 272.01949521 -29.17170978 275.11159075 -33.96484375 276.6171875 C-37.51393768 277.08102948 -39.54973171 277.18202335 -42.9375 275.8125 C-45 274 -45 274 -46 272.1875 C-46 268.85270448 -44.67575446 266.86420794 -43 264 C-41.07273513 262.14411531 -39.17753306 260.44700333 -37.125 258.75 C-30.18024541 252.65916836 -26.28504522 246.77030319 -25 237.4375 C-24.67077025 230.5914578 -26.20420505 225.44427645 -30.25 219.9375 C-32.9315892 217.78177922 -32.9315892 217.78177922 -36.4375 217.25 C-41.4099924 218.29684051 -43.14497691 220.94643542 -46 225 C-47.48195495 227.73473817 -48.65283248 230.55376403 -49.8125 233.4375 C-57.40785643 251.30589784 -67.29276868 267.20378045 -80.65917969 281.30615234 C-90.66128214 291.91671061 -96.72394396 300.62925052 -96.34375 315.47265625 C-95.24568316 326.74031936 -89.28496286 336.28254903 -81.0625 343.875 C-63.30437911 358.22976186 -35.79461263 355.41386367 -14.47851562 353.17553711 C13.12072436 349.81159696 53.40382021 342.46005441 73.65234375 321.87890625 C75.8195287 318.85741071 76.3535296 316.67670789 76 313 C74.77564845 310.35762154 74.77564845 310.35762154 72 309 C64.26756305 307.77262906 59.01664828 310.43374509 52.19384766 313.89013672 C48.5343385 315.74147531 44.85760754 317.55668132 41.17236328 319.35620117 C39.12457564 320.3563022 37.08236742 321.36792243 35.04638672 322.3918457 C34.09393066 322.8580835 33.14147461 323.32432129 32.16015625 323.8046875 C30.88603882 324.43866455 30.88603882 324.43866455 29.58618164 325.08544922 C26.5702504 326.15197225 24.176995 326.23155858 21 326 C20 325 20 325 19.6875 322.1875 C20.0793522 318.19060755 20.97268641 317.5459211 24 315 C26.93359375 313.359375 26.93359375 313.359375 30.4375 311.75 C31.0778418 311.45552979 31.71818359 311.16105957 32.37792969 310.85766602 C38.07344136 308.29522282 43.89853384 306.1137983 49.75 303.9375 C64.87570883 298.77404178 64.87570883 298.77404178 76 288 C77.32026414 284.51305609 77.32026414 284.51305609 77 281 C74.64103439 277.53526926 73.11842819 276.23300587 69 275.375 C53.06166549 276.73725081 36.28921074 288.89940364 22.9543457 297.00439453 C11.10255463 304.20685096 11.10255463 304.20685096 7.79296875 303.5859375 C7.20128906 303.39257812 6.60960937 303.19921875 6 303 C5.47797963 300.01702647 5.52147126 297.84830095 7.03125 295.171875 C16.11687945 283.76848293 31.57749644 276.74373351 43.90380859 269.52905273 C59.13915562 260.70848836 59.13915562 260.70848836 71 248 C70.8616853 244.19634586 70.49915469 241.74873203 68.375 238.5625 C65.09769079 236.40637552 62.73527263 236.23413475 59 237 C37.97911173 243.78674393 20.38683314 260.33656931 3.99609375 274.6171875 C-4.93767741 282.22608648 -4.93767741 282.22608648 -11 283 C-11.66 282.67 -12.32 282.34 -13 282 C-12.67086293 275.9607174 -10.78954568 272.76179899 -6.6875 268.3125 C-6.12716064 267.68311523 -5.56682129 267.05373047 -4.98950195 266.40527344 C1.00794775 259.77605084 7.39981312 253.51093578 13.84301758 247.31762695 C26.30193847 235.35059017 26.30193847 235.35059017 31.4375 219.5625 C31.36146209 215.4999029 31.18333833 214.26715014 28.8125 210.8125 C15.08939025 201.96871816 1.27587262 225.702706 -5 235 Z " fill="#050505" transform="translate(384,67)"/>
<path d="M0 0 C8.22186965 -1.42989037 15.8100148 3.43734895 22.9921875 6.9375 C44.48512863 17.37514963 66.41844338 23.50843094 89.95361328 15.74072266 C96.81624148 13.25668377 103.40244139 10.10498773 110 7 C112.88779788 5.6483318 115.78426627 4.31813093 118.6875 3 C119.32236328 2.69731201 119.95722656 2.39462402 120.61132812 2.08276367 C124.88670279 0.14555552 128.32613258 -0.46104734 133 0 C135.41776829 2.41776829 135.30391812 3.78974343 135.38085938 7.1015625 C135.32132065 28.29734751 126.94545323 47.09652838 112 62 C98.51496254 73.73539652 80.94756229 78.78803395 63.28125 78.28515625 C43.5567204 76.5710007 26.96776655 69.1169867 14 54 C3.31055374 39.50364833 -4.16909506 21.26075373 -2 3 C-1.34 2.01 -0.68 1.02 0 0 Z " fill="#111318" transform="translate(184,221)"/>
<path d="M0 0 C2.1328125 2.3359375 2.1328125 2.3359375 4.125 5.375 C6.99456797 9.73692628 6.99456797 9.73692628 11 13 C15.17530823 8.36784876 15.17530823 8.36784876 18.5 3.125 C20 1 20 1 22.734375 0.21875 C30.57082685 -0.30617979 37.78300009 5.50371014 43.5 10.375 C47.5842621 14.24257295 49.91876346 17.79690865 52 23 C42.74428306 33.42413665 26.85269802 36.18940723 13.62890625 37.27734375 C-2.56036484 37.77273148 -17.65182849 32.98434621 -31 24 C-25.63059663 12.49005554 -18.09938497 6.4419805 -6.88671875 0.62890625 C-4.32124296 -0.22625235 -2.68821252 -0.46119257 0 0 Z " fill="#FC343F" transform="translate(240,262)"/>
<path d="M0 0 C5.13744434 3.88563041 9.61569899 9.09801113 11.00390625 15.515625 C11.99523269 24.54771031 11.46114686 32.04277039 6.00390625 39.515625 C3.02240514 42.90621579 0.10190411 45.01237598 -3.99609375 46.890625 C-8.34562526 46.34693356 -9.7497053 43.91213983 -12.4140625 40.59765625 C-12.93613281 39.91058594 -13.45820313 39.22351563 -13.99609375 38.515625 C-15.76764027 35.98971652 -15.76764027 35.98971652 -17.99609375 34.515625 C-23.20137963 34.01988349 -26.19705692 34.54678938 -30.99609375 36.515625 C-33.32817395 36.59208665 -35.66455253 36.60705799 -37.99609375 36.515625 C-41.95186081 29.12006049 -43.23577307 22.38149635 -40.99609375 14.140625 C-38.45719404 7.16759059 -33.37453977 1.46025956 -26.80859375 -1.984375 C-17.94729548 -6.01393379 -8.19106038 -5.09926478 0 0 Z " fill="#12151A" transform="translate(331.99609375,138.484375)"/>
<path d="M0 0 C5.25585316 4.64728069 8.64065342 10.05716947 9.28125 17.0859375 C9.45691491 23.48306805 9.18078499 28.40181842 6 34 C5.67 34.33 5.34 34.66 5 35 C3.0390625 34.9140625 3.0390625 34.9140625 0.625 34.625 C-0.56222656 34.48964844 -0.56222656 34.48964844 -1.7734375 34.3515625 C-4 34 -4 34 -7 33 C-11.06728207 32.45150759 -11.06728207 32.45150759 -15 33 C-17.43912416 35.01369552 -19.15696897 37.44608557 -21 40 C-23.5625 43 -23.5625 43 -26 45 C-31.79771008 44.55620135 -35.21569372 41.13265246 -39 37 C-43.26491368 30.4442184 -44.84960942 23.76785757 -44 16 C-41.96544991 7.95985024 -38.00434145 2.12057794 -30.9453125 -2.28125 C-20.38646573 -7.85950867 -9.89088892 -6.62809137 0 0 Z " fill="#12151A" transform="translate(202,140)"/>
<path d="M0 0 C4.73521349 2.66300647 8.08397695 5.86527122 9.72265625 11.1171875 C10.63078638 16.41028882 10.3156781 20.77028275 7.66015625 25.4921875 C4.34465767 30.0672051 0.93699715 32.56570744 -4.66796875 33.52734375 C-10.1688989 33.85638712 -14.10556942 32.90032558 -18.58203125 29.65625 C-22.87693152 25.75719307 -24.49380125 21.96480831 -24.83984375 16.1796875 C-24.59437841 10.80399647 -22.88012485 7.08573318 -19.27734375 3.1171875 C-13.8901693 -1.72306569 -6.70944116 -2.60091544 0 0 Z " fill="#060606" transform="translate(380.27734375,162.8828125)"/>
<path d="M0 0 C4.73521349 2.66300647 8.08397695 5.86527122 9.72265625 11.1171875 C10.63078638 16.41028882 10.3156781 20.77028275 7.66015625 25.4921875 C4.34465767 30.0672051 0.93699715 32.56570744 -4.66796875 33.52734375 C-10.1688989 33.85638712 -14.10556942 32.90032558 -18.58203125 29.65625 C-22.87693152 25.75719307 -24.49380125 21.96480831 -24.83984375 16.1796875 C-24.59437841 10.80399647 -22.88012485 7.08573318 -19.27734375 3.1171875 C-13.8901693 -1.72306569 -6.70944116 -2.60091544 0 0 Z " fill="#060606" transform="translate(135.27734375,162.8828125)"/>
<path d="M0 0 C9.57 0 19.14 0 29 0 C29 0.33 29 0.66 29 1 C19.43 1 9.86 1 0 1 C0 0.67 0 0.34 0 0 Z " fill="#FFFFFF" transform="translate(235,440)"/>
<path d="M0 0 C8.58 0 17.16 0 26 0 C26 0.33 26 0.66 26 1 C17.42 1 8.84 1 0 1 C0 0.67 0 0.34 0 0 Z " fill="#FFFFFF" transform="translate(140,462)"/>
<path d="M0 0 C0.66 0.33 1.32 0.66 2 1 C-1.63 4.63 -5.26 8.26 -9 12 C-9 8.00102358 -7.64683965 6.93298448 -5 4 C-3.36643049 2.62631655 -1.7074998 1.28062485 0 0 Z " fill="#E13F49" transform="translate(222,269)"/>
<path d="M0 0 C8.25 0 16.5 0 25 0 C25 0.33 25 0.66 25 1 C16.75 1 8.5 1 0 1 C0 0.67 0 0.34 0 0 Z " fill="#FFFFFF" transform="translate(334,462)"/>
<path d="M0 0 C0.33 0 0.66 0 1 0 C1 6.27 1 12.54 1 19 C0.67 19 0.34 19 0 19 C0 12.73 0 6.46 0 0 Z " fill="#FFFFFF" transform="translate(470,211)"/>
<path d="M0 0 C0.33 0 0.66 0 1 0 C1 3.3 1 6.6 1 10 C0.67 10 0.34 10 0 10 C0 6.7 0 3.4 0 0 Z " fill="#FFFFFF" transform="translate(28,230)"/>
<path d="M0 0 C0.33 0 0.66 0 1 0 C1 2.97 1 5.94 1 9 C0.67 9 0.34 9 0 9 C0 6.03 0 3.06 0 0 Z " fill="#FFFFFF" transform="translate(28,201)"/>
<path d="M0 0 C0.33 0 0.66 0 1 0 C1 2.64 1 5.28 1 8 C0.67 8 0.34 8 0 8 C0 5.36 0 2.72 0 0 Z " fill="#FFFFFF" transform="translate(469,197)"/>
<path d="M0 0 C2.64 0 5.28 0 8 0 C8 0.33 8 0.66 8 1 C5.36 1 2.72 1 0 1 C0 0.67 0 0.34 0 0 Z " fill="#FFFFFF" transform="translate(262,0)"/>
<path d="M0 0 C2.64 0 5.28 0 8 0 C8 0.33 8 0.66 8 1 C5.36 1 2.72 1 0 1 C0 0.67 0 0.34 0 0 Z " fill="#FFFFFF" transform="translate(228,0)"/>
<path d="M0 0 C2.31 0 4.62 0 7 0 C7 0.33 7 0.66 7 1 C4.69 1 2.38 1 0 1 C0 0.67 0 0.34 0 0 Z " fill="#FFFFFF" transform="translate(364,461)"/>
<path d="M0 0 C2.31 0 4.62 0 7 0 C7 0.33 7 0.66 7 1 C4.69 1 2.38 1 0 1 C0 0.67 0 0.34 0 0 Z " fill="#FFFFFF" transform="translate(129,461)"/>
<path d="M0 0 C2.31 0 4.62 0 7 0 C7 0.33 7 0.66 7 1 C4.69 1 2.38 1 0 1 C0 0.67 0 0.34 0 0 Z " fill="#FFFFFF" transform="translate(268,439)"/>
<path d="M0 0 C0.33 0 0.66 0 1 0 C1 2.31 1 4.62 1 7 C0.67 7 0.34 7 0 7 C0 4.69 0 2.38 0 0 Z " fill="#FFFFFF" transform="translate(469,236)"/>
<path d="M0 0 C1.98 0 3.96 0 6 0 C6 0.33 6 0.66 6 1 C4.02 1 2.04 1 0 1 C0 0.67 0 0.34 0 0 Z " fill="#FFFFFF" transform="translate(224,439)"/>
<path d="M0 0 C1.65 0 3.3 0 5 0 C5 0.33 5 0.66 5 1 C3.35 1 1.7 1 0 1 C0 0.67 0 0.34 0 0 Z " fill="#FFFFFF" transform="translate(325,461)"/>
<path d="M0 0 C1.65 0 3.3 0 5 0 C5 0.33 5 0.66 5 1 C3.35 1 1.7 1 0 1 C0 0.67 0 0.34 0 0 Z " fill="#FFFFFF" transform="translate(170,461)"/>
<path d="M0 0 C1.65 0 3.3 0 5 0 C5 0.33 5 0.66 5 1 C3.35 1 1.7 1 0 1 C0 0.67 0 0.34 0 0 Z " fill="#FFFFFF" transform="translate(373,460)"/>
<path d="M0 0 C1.65 0 3.3 0 5 0 C5 0.33 5 0.66 5 1 C3.35 1 1.7 1 0 1 C0 0.67 0 0.34 0 0 Z " fill="#FFFFFF" transform="translate(122,460)"/>
<path d="M0 0 C0.33 0 0.66 0 1 0 C1 1.65 1 3.3 1 5 C0.67 5 0.34 5 0 5 C0 3.35 0 1.7 0 0 Z " fill="#FFFFFF" transform="translate(493,304)"/>
<path d="M0 0 C0.33 0 0.66 0 1 0 C1 1.65 1 3.3 1 5 C0.67 5 0.34 5 0 5 C0 3.35 0 1.7 0 0 Z " fill="#FFFFFF" transform="translate(6,304)"/>
<path d="M0 0 C0.33 0 0.66 0 1 0 C1 1.65 1 3.3 1 5 C0.67 5 0.34 5 0 5 C0 3.35 0 1.7 0 0 Z " fill="#FFFFFF" transform="translate(468,246)"/>
<path d="M0 0 C0.33 0 0.66 0 1 0 C1 1.65 1 3.3 1 5 C0.67 5 0.34 5 0 5 C0 3.35 0 1.7 0 0 Z " fill="#FFFFFF" transform="translate(29,244)"/>
<path d="M0 0 C0.33 0 0.66 0 1 0 C1 1.65 1 3.3 1 5 C0.67 5 0.34 5 0 5 C0 3.35 0 1.7 0 0 Z " fill="#FFFFFF" transform="translate(29,192)"/>
<path d="M0 0 C0.33 0 0.66 0 1 0 C1 1.65 1 3.3 1 5 C0.67 5 0.34 5 0 5 C0 3.35 0 1.7 0 0 Z " fill="#FFFFFF" transform="translate(468,189)"/>
<path d="M0 0 C0.33 0 0.66 0 1 0 C1 1.65 1 3.3 1 5 C0.67 5 0.34 5 0 5 C0 3.35 0 1.7 0 0 Z " fill="#FFFFFF" transform="translate(30,184)"/>
<path d="M0 0 C1.65 0 3.3 0 5 0 C5 0.33 5 0.66 5 1 C3.35 1 1.7 1 0 1 C0 0.67 0 0.34 0 0 Z " fill="#FFFFFF" transform="translate(274,1)"/>
<path d="M0 0 C1.65 0 3.3 0 5 0 C5 0.33 5 0.66 5 1 C3.35 1 1.7 1 0 1 C0 0.67 0 0.34 0 0 Z " fill="#FFFFFF" transform="translate(220,1)"/>
<path d="M0 0 C4 1 4 1 4 1 Z " fill="#FFFFFF" transform="translate(380,459)"/>
<path d="M0 0 C4 1 4 1 4 1 Z " fill="#FFFFFF" transform="translate(116,459)"/>
<path d="M0 0 C1 4 1 4 1 4 Z " fill="#FFFFFF" transform="translate(498,390)"/>
<path d="M0 0 C1 4 1 4 1 4 Z " fill="#FFFFFF" transform="translate(1,389)"/>
<path d="M0 0 C1 4 1 4 1 4 Z " fill="#FFFFFF" transform="translate(498,374)"/>
<path d="M0 0 C1 4 1 4 1 4 Z " fill="#FFFFFF" transform="translate(499,358)"/>
<path d="M0 0 C1 4 1 4 1 4 Z " fill="#FFFFFF" transform="translate(0,358)"/>
<path d="M0 0 C1 4 1 4 1 4 Z " fill="#FFFFFF" transform="translate(499,343)"/>
<path d="M0 0 C1 4 1 4 1 4 Z " fill="#FFFFFF" transform="translate(0,343)"/>
<path d="M0 0 C1 4 1 4 1 4 Z " fill="#FFFFFF" transform="translate(493,318)"/>
<path d="M0 0 C1 4 1 4 1 4 Z " fill="#FFFFFF" transform="translate(6,318)"/>
<path d="M0 0 C1 4 1 4 1 4 Z " fill="#FFFFFF" transform="translate(466,259)"/>
<path d="M0 0 C1 4 1 4 1 4 Z " fill="#FFFFFF" transform="translate(467,254)"/>
<path d="M0 0 C1 4 1 4 1 4 Z " fill="#FFFFFF" transform="translate(30,252)"/>
<path d="M0 0 C1 4 1 4 1 4 Z " fill="#FFFFFF" transform="translate(467,182)"/>
<path d="M0 0 C1 4 1 4 1 4 Z " fill="#FFFFFF" transform="translate(31,179)"/>
<path d="M0 0 C1 4 1 4 1 4 Z " fill="#FFFFFF" transform="translate(466,177)"/>
<path d="M0 0 C1 4 1 4 1 4 Z " fill="#FFFFFF" transform="translate(33,169)"/>
<path d="M0 0 C4 1 4 1 4 1 Z " fill="#FFFFFF" transform="translate(293,4)"/>
<path d="M0 0 C4 1 4 1 4 1 Z " fill="#FFFFFF" transform="translate(288,3)"/>
<path d="M0 0 C4 1 4 1 4 1 Z " fill="#FFFFFF" transform="translate(207,3)"/>
<path d="M0 0 C4 1 4 1 4 1 Z " fill="#FFFFFF" transform="translate(282,2)"/>
<path d="M0 0 C4 1 4 1 4 1 Z " fill="#FFFFFF" transform="translate(213,2)"/>
<path d="M0 0 C3 1 3 1 3 1 Z " fill="#FFFFFF" transform="translate(319,460)"/>
<path d="M0 0 C3 1 3 1 3 1 Z " fill="#FFFFFF" transform="translate(178,460)"/>
<path d="M0 0 C3 1 3 1 3 1 Z " fill="#FFFFFF" transform="translate(314,459)"/>
<path d="M0 0 C3 1 3 1 3 1 Z " fill="#FFFFFF" transform="translate(183,459)"/>
<path d="M0 0 C3 1 3 1 3 1 Z " fill="#FFFFFF" transform="translate(386,458)"/>
<path d="M0 0 C3 1 3 1 3 1 Z " fill="#FFFFFF" transform="translate(111,458)"/>
<path d="M0 0 C3 1 3 1 3 1 Z " fill="#FFFFFF" transform="translate(391,457)"/>
<path d="M0 0 C3 1 3 1 3 1 Z " fill="#FFFFFF" transform="translate(307,457)"/>
<path d="M0 0 C3 1 3 1 3 1 Z " fill="#FFFFFF" transform="translate(190,457)"/>
<path d="M0 0 C3 1 3 1 3 1 Z " fill="#FFFFFF" transform="translate(106,457)"/>
<path d="M0 0 C3 1 3 1 3 1 Z " fill="#FFFFFF" transform="translate(396,456)"/>
<path d="M0 0 C3 1 3 1 3 1 Z " fill="#FFFFFF" transform="translate(304,456)"/>
<path d="M0 0 C3 1 3 1 3 1 Z " fill="#FFFFFF" transform="translate(101,456)"/>
<path d="M0 0 C3 1 3 1 3 1 Z " fill="#FFFFFF" transform="translate(400,455)"/>
<path d="M0 0 C3 1 3 1 3 1 Z " fill="#FFFFFF" transform="translate(97,455)"/>
<path d="M0 0 C3 1 3 1 3 1 Z " fill="#FFFFFF" transform="translate(404,454)"/>
<path d="M0 0 C3 1 3 1 3 1 Z " fill="#FFFFFF" transform="translate(93,454)"/>
<path d="M0 0 C3 1 3 1 3 1 Z " fill="#FFFFFF" transform="translate(408,453)"/>
<path d="M0 0 C3 1 3 1 3 1 Z " fill="#FFFFFF" transform="translate(89,453)"/>
<path d="M0 0 C3 1 3 1 3 1 Z " fill="#FFFFFF" transform="translate(82,451)"/>
<path d="M0 0 C3 1 3 1 3 1 Z " fill="#FFFFFF" transform="translate(418,450)"/>
<path d="M0 0 C3 1 3 1 3 1 Z " fill="#FFFFFF" transform="translate(421,449)"/>
<path d="M0 0 C3 1 3 1 3 1 Z " fill="#FFFFFF" transform="translate(76,449)"/>
<path d="M0 0 C3 1 3 1 3 1 Z " fill="#FFFFFF" transform="translate(424,448)"/>
<path d="M0 0 C3 1 3 1 3 1 Z " fill="#FFFFFF" transform="translate(73,448)"/>
<path d="" fill="#FFFFFF" transform="translate(0,0)"/>
<path d="" fill="#FFFFFF" transform="translate(0,0)"/>
<path d="" fill="#FFFFFF" transform="translate(0,0)"/>
<path d="" fill="#FFFFFF" transform="translate(0,0)"/>
<path d="" fill="#FFFFFF" transform="translate(0,0)"/>
<path d="" fill="#FFFFFF" transform="translate(0,0)"/>
<path d="" fill="#FFFFFF" transform="translate(0,0)"/>
<path d="" fill="#FFFFFF" transform="translate(0,0)"/>
<path d="" fill="#FFFFFF" transform="translate(0,0)"/>
<path d="" fill="#FFFFFF" transform="translate(0,0)"/>
<path d="" fill="#FFFFFF" transform="translate(0,0)"/>
<path d="" fill="#FFFFFF" transform="translate(0,0)"/>
<path d="" fill="#FFFFFF" transform="translate(0,0)"/>
<path d="" fill="#FFFFFF" transform="translate(0,0)"/>
<path d="" fill="#FFFFFF" transform="translate(0,0)"/>
<path d="" fill="#FFFFFF" transform="translate(0,0)"/>
<path d="M0 0 C3 1 3 1 3 1 Z " fill="#FFFFFF" transform="translate(322,12)"/>
<path d="M0 0 C3 1 3 1 3 1 Z " fill="#FFFFFF" transform="translate(316,10)"/>
<path d="M0 0 C3 1 3 1 3 1 Z " fill="#FFFFFF" transform="translate(313,9)"/>
<path d="M0 0 C3 1 3 1 3 1 Z " fill="#FFFFFF" transform="translate(186,8)"/>
<path d="M0 0 C3 1 3 1 3 1 Z " fill="#FFFFFF" transform="translate(306,7)"/>
<path d="M0 0 C3 1 3 1 3 1 Z " fill="#FFFFFF" transform="translate(302,6)"/>
<path d="M0 0 C3 1 3 1 3 1 Z " fill="#FFFFFF" transform="translate(193,6)"/>
<path d="M0 0 C3 1 3 1 3 1 Z " fill="#FFFFFF" transform="translate(298,5)"/>
<path d="M0 0 C3 1 3 1 3 1 Z " fill="#FFFFFF" transform="translate(198,5)"/>
<path d="M0 0 C3 1 3 1 3 1 Z " fill="#FFFFFF" transform="translate(202,4)"/>
<path d="M0 0 C2 1 2 1 2 1 Z " fill="#FFFFFF" transform="translate(311,458)"/>
<path d="M0 0 C2 1 2 1 2 1 Z " fill="#FFFFFF" transform="translate(187,458)"/>
<path d="M0 0 C2 1 2 1 2 1 Z " fill="#FFFFFF" transform="translate(194,456)"/>
<path d="M0 0 C2 1 2 1 2 1 Z " fill="#FFFFFF" transform="translate(302,455)"/>
<path d="M0 0 C2 1 2 1 2 1 Z " fill="#FFFFFF" transform="translate(196,455)"/>
<path d="M0 0 C2 1 2 1 2 1 Z " fill="#FFFFFF" transform="translate(299,454)"/>
<path d="M0 0 C2 1 2 1 2 1 Z " fill="#FFFFFF" transform="translate(199,454)"/>
<path d="M0 0 C2 1 2 1 2 1 Z " fill="#FFFFFF" transform="translate(297,453)"/>
<path d="M0 0 C2 1 2 1 2 1 Z " fill="#FFFFFF" transform="translate(201,453)"/>
<path d="M0 0 C2 1 2 1 2 1 Z " fill="#FFFFFF" transform="translate(412,452)"/>
<path d="M0 0 C2 1 2 1 2 1 Z " fill="#FFFFFF" transform="translate(295,452)"/>
<path d="M0 0 C2 1 2 1 2 1 Z " fill="#FFFFFF" transform="translate(203,452)"/>
<path d="M0 0 C2 1 2 1 2 1 Z " fill="#FFFFFF" transform="translate(86,452)"/>
<path d="M0 0 C2 1 2 1 2 1 Z " fill="#FFFFFF" transform="translate(415,451)"/>
<path d="M0 0 C2 1 2 1 2 1 Z " fill="#FFFFFF" transform="translate(293,451)"/>
<path d="M0 0 C2 1 2 1 2 1 Z " fill="#FFFFFF" transform="translate(205,451)"/>
<path d="M0 0 C2 1 2 1 2 1 Z " fill="#FFFFFF" transform="translate(291,450)"/>
<path d="M0 0 C2 1 2 1 2 1 Z " fill="#FFFFFF" transform="translate(207,450)"/>
<path d="M0 0 C2 1 2 1 2 1 Z " fill="#FFFFFF" transform="translate(80,450)"/>
<path d="M0 0 C2 1 2 1 2 1 Z " fill="#FFFFFF" transform="translate(427,447)"/>
<path d="M0 0 C2 1 2 1 2 1 Z " fill="#FFFFFF" transform="translate(286,447)"/>
<path d="M0 0 C2 1 2 1 2 1 Z " fill="#FFFFFF" transform="translate(212,447)"/>
<path d="M0 0 C2 1 2 1 2 1 Z " fill="#FFFFFF" transform="translate(71,447)"/>
<path d="M0 0 C2 1 2 1 2 1 Z " fill="#FFFFFF" transform="translate(430,446)"/>
<path d="M0 0 C2 1 2 1 2 1 Z " fill="#FFFFFF" transform="translate(68,446)"/>
<path d="M0 0 C2 1 2 1 2 1 Z " fill="#FFFFFF" transform="translate(433,445)"/>
<path d="M0 0 C2 1 2 1 2 1 Z " fill="#FFFFFF" transform="translate(65,445)"/>
<path d="M0 0 C2 1 2 1 2 1 Z " fill="#FFFFFF" transform="translate(436,444)"/>
<path d="M0 0 C2 1 2 1 2 1 Z " fill="#FFFFFF" transform="translate(282,444)"/>
<path d="M0 0 C2 1 2 1 2 1 Z " fill="#FFFFFF" transform="translate(216,444)"/>
<path d="M0 0 C2 1 2 1 2 1 Z " fill="#FFFFFF" transform="translate(62,444)"/>
<path d="M0 0 C2 1 2 1 2 1 Z " fill="#FFFFFF" transform="translate(438,443)"/>
<path d="M0 0 C2 1 2 1 2 1 Z " fill="#FFFFFF" transform="translate(60,443)"/>
<path d="M0 0 C2 1 2 1 2 1 Z " fill="#FFFFFF" transform="translate(441,442)"/>
<path d="M0 0 C2 1 2 1 2 1 Z " fill="#FFFFFF" transform="translate(57,442)"/>
<path d="M0 0 C2 1 2 1 2 1 Z " fill="#FFFFFF" transform="translate(443,441)"/>
<path d="M0 0 C2 1 2 1 2 1 Z " fill="#FFFFFF" transform="translate(55,441)"/>
<path d="M0 0 C2 1 2 1 2 1 Z " fill="#FFFFFF" transform="translate(446,440)"/>
<path d="M0 0 C2 1 2 1 2 1 Z " fill="#FFFFFF" transform="translate(52,440)"/>
<path d="M0 0 C2 1 2 1 2 1 Z " fill="#FFFFFF" transform="translate(448,439)"/>
<path d="M0 0 C2 1 2 1 2 1 Z " fill="#FFFFFF" transform="translate(50,439)"/>
<path d="M0 0 C2 1 2 1 2 1 Z " fill="#FFFFFF" transform="translate(453,437)"/>
<path d="M0 0 C2 1 2 1 2 1 Z " fill="#FFFFFF" transform="translate(455,436)"/>
<path d="M0 0 C2 1 2 1 2 1 Z " fill="#FFFFFF" transform="translate(43,436)"/>
<path d="M0 0 C2 1 2 1 2 1 Z " fill="#FFFFFF" transform="translate(457,435)"/>
<path d="M0 0 C2 1 2 1 2 1 Z " fill="#FFFFFF" transform="translate(41,435)"/>
<path d="M0 0 C2 1 2 1 2 1 Z " fill="#FFFFFF" transform="translate(459,434)"/>
<path d="M0 0 C2 1 2 1 2 1 Z " fill="#FFFFFF" transform="translate(39,434)"/>
<path d="M0 0 C2 1 2 1 2 1 Z " fill="#FFFFFF" transform="translate(461,433)"/>
<path d="M0 0 C2 1 2 1 2 1 Z " fill="#FFFFFF" transform="translate(37,433)"/>
<path d="M0 0 C2 1 2 1 2 1 Z " fill="#FFFFFF" transform="translate(463,432)"/>
<path d="M0 0 C2 1 2 1 2 1 Z " fill="#FFFFFF" transform="translate(468,429)"/>
<path d="M0 0 C2 1 2 1 2 1 Z " fill="#FFFFFF" transform="translate(30,429)"/>
<path d="M0 0 C2 1 2 1 2 1 Z " fill="#FFFFFF" transform="translate(474,425)"/>
<path d="M0 0 C2 1 2 1 2 1 Z " fill="#FFFFFF" transform="translate(24,425)"/>
<path d="M0 0 C2 1 2 1 2 1 Z " fill="#FFFFFF" transform="translate(477,423)"/>
<path d="M0 0 C2 1 2 1 2 1 Z " fill="#FFFFFF" transform="translate(20,422)"/>
<path d="" fill="#FFFFFF" transform="translate(0,0)"/>
<path d="" fill="#FFFFFF" transform="translate(0,0)"/>
<path d="" fill="#FFFFFF" transform="translate(0,0)"/>
<path d="" fill="#FFFFFF" transform="translate(0,0)"/>
<path d="" fill="#FFFFFF" transform="translate(0,0)"/>
<path d="" fill="#FFFFFF" transform="translate(0,0)"/>
<path d="" fill="#FFFFFF" transform="translate(0,0)"/>
<path d="" fill="#FFFFFF" transform="translate(0,0)"/>
<path d="" fill="#FFFFFF" transform="translate(0,0)"/>
<path d="" fill="#FFFFFF" transform="translate(0,0)"/>
<path d="" fill="#FFFFFF" transform="translate(0,0)"/>
<path d="" fill="#FFFFFF" transform="translate(0,0)"/>
<path d="" fill="#FFFFFF" transform="translate(0,0)"/>
<path d="" fill="#FFFFFF" transform="translate(0,0)"/>
<path d="" fill="#FFFFFF" transform="translate(0,0)"/>
<path d="" fill="#FFFFFF" transform="translate(0,0)"/>
<path d="" fill="#FFFFFF" transform="translate(0,0)"/>
<path d="" fill="#FFFFFF" transform="translate(0,0)"/>
<path d="" fill="#FFFFFF" transform="translate(0,0)"/>
<path d="" fill="#FFFFFF" transform="translate(0,0)"/>
<path d="" fill="#FFFFFF" transform="translate(0,0)"/>
<path d="" fill="#FFFFFF" transform="translate(0,0)"/>
<path d="" fill="#FFFFFF" transform="translate(0,0)"/>
<path d="" fill="#FFFFFF" transform="translate(0,0)"/>
<path d="" fill="#FFFFFF" transform="translate(0,0)"/>
<path d="" fill="#FFFFFF" transform="translate(0,0)"/>
<path d="" fill="#FFFFFF" transform="translate(0,0)"/>
<path d="" fill="#FFFFFF" transform="translate(0,0)"/>
<path d="" fill="#FFFFFF" transform="translate(0,0)"/>
<path d="" fill="#FFFFFF" transform="translate(0,0)"/>
<path d="" fill="#FFFFFF" transform="translate(0,0)"/>
<path d="" fill="#FFFFFF" transform="translate(0,0)"/>
<path d="" fill="#FFFFFF" transform="translate(0,0)"/>
<path d="" fill="#FFFFFF" transform="translate(0,0)"/>
<path d="" fill="#FFFFFF" transform="translate(0,0)"/>
<path d="" fill="#FFFFFF" transform="translate(0,0)"/>
<path d="" fill="#FFFFFF" transform="translate(0,0)"/>
<path d="" fill="#FFFFFF" transform="translate(0,0)"/>
<path d="" fill="#FFFFFF" transform="translate(0,0)"/>
<path d="" fill="#FFFFFF" transform="translate(0,0)"/>
<path d="M0 0 C2 1 2 1 2 1 Z " fill="#FFFFFF" transform="translate(475,276)"/>
<path d="M0 0 C2 1 2 1 2 1 Z " fill="#FFFFFF" transform="translate(23,276)"/>
<path d="M0 0 C2 1 2 1 2 1 Z " fill="#FFFFFF" transform="translate(471,273)"/>
<path d="M0 0 C2 1 2 1 2 1 Z " fill="#FFFFFF" transform="translate(27,273)"/>
<path d="M0 0 C2 1 2 1 2 1 Z " fill="#FFFFFF" transform="translate(469,272)"/>
<path d="M0 0 C2 1 2 1 2 1 Z " fill="#FFFFFF" transform="translate(467,271)"/>
<path d="M0 0 C2 1 2 1 2 1 Z " fill="#FFFFFF" transform="translate(465,270)"/>
<path d="" fill="#FFFFFF" transform="translate(0,0)"/>
<path d="" fill="#FFFFFF" transform="translate(0,0)"/>
<path d="" fill="#FFFFFF" transform="translate(0,0)"/>
<path d="" fill="#FFFFFF" transform="translate(0,0)"/>
<path d="" fill="#FFFFFF" transform="translate(0,0)"/>
<path d="" fill="#FFFFFF" transform="translate(0,0)"/>
<path d="" fill="#FFFFFF" transform="translate(0,0)"/>
<path d="" fill="#FFFFFF" transform="translate(0,0)"/>
<path d="" fill="#FFFFFF" transform="translate(0,0)"/>
<path d="" fill="#FFFFFF" transform="translate(0,0)"/>
<path d="" fill="#FFFFFF" transform="translate(0,0)"/>
<path d="" fill="#FFFFFF" transform="translate(0,0)"/>
<path d="" fill="#FFFFFF" transform="translate(0,0)"/>
<path d="" fill="#FFFFFF" transform="translate(0,0)"/>
<path d="" fill="#FFFFFF" transform="translate(0,0)"/>
<path d="" fill="#FFFFFF" transform="translate(0,0)"/>
<path d="" fill="#FFFFFF" transform="translate(0,0)"/>
<path d="" fill="#FFFFFF" transform="translate(0,0)"/>
<path d="" fill="#FFFFFF" transform="translate(0,0)"/>
<path d="" fill="#FFFFFF" transform="translate(0,0)"/>
<path d="" fill="#FFFFFF" transform="translate(0,0)"/>
<path d="" fill="#FFFFFF" transform="translate(0,0)"/>
<path d="" fill="#FFFFFF" transform="translate(0,0)"/>
<path d="" fill="#FFFFFF" transform="translate(0,0)"/>
<path d="" fill="#FFFFFF" transform="translate(0,0)"/>
<path d="" fill="#FFFFFF" transform="translate(0,0)"/>
<path d="" fill="#FFFFFF" transform="translate(0,0)"/>
<path d="" fill="#FFFFFF" transform="translate(0,0)"/>
<path d="" fill="#FFFFFF" transform="translate(0,0)"/>
<path d="" fill="#FFFFFF" transform="translate(0,0)"/>
<path d="" fill="#FFFFFF" transform="translate(0,0)"/>
<path d="" fill="#FFFFFF" transform="translate(0,0)"/>
<path d="" fill="#FFFFFF" transform="translate(0,0)"/>
<path d="" fill="#FFFFFF" transform="translate(0,0)"/>
<path d="" fill="#FFFFFF" transform="translate(0,0)"/>
<path d="" fill="#FFFFFF" transform="translate(0,0)"/>
<path d="" fill="#FFFFFF" transform="translate(0,0)"/>
<path d="" fill="#FFFFFF" transform="translate(0,0)"/>
<path d="" fill="#FFFFFF" transform="translate(0,0)"/>
<path d="" fill="#FFFFFF" transform="translate(0,0)"/>
<path d="" fill="#FFFFFF" transform="translate(0,0)"/>
<path d="" fill="#FFFFFF" transform="translate(0,0)"/>
<path d="" fill="#FFFFFF" transform="translate(0,0)"/>
<path d="" fill="#FFFFFF" transform="translate(0,0)"/>
<path d="" fill="#FFFFFF" transform="translate(0,0)"/>
<path d="M0 0 C2 1 2 1 2 1 Z " fill="#FFFFFF" transform="translate(100,56)"/>
<path d="M0 0 C2 1 2 1 2 1 Z " fill="#FFFFFF" transform="translate(393,53)"/>
<path d="M0 0 C2 1 2 1 2 1 Z " fill="#FFFFFF" transform="translate(387,48)"/>
<path d="M0 0 C2 1 2 1 2 1 Z " fill="#FFFFFF" transform="translate(112,46)"/>
<path d="M0 0 C2 1 2 1 2 1 Z " fill="#FFFFFF" transform="translate(382,44)"/>
<path d="M0 0 C2 1 2 1 2 1 Z " fill="#FFFFFF" transform="translate(120,40)"/>
<path d="M0 0 C2 1 2 1 2 1 Z " fill="#FFFFFF" transform="translate(375,39)"/>
<path d="M0 0 C2 1 2 1 2 1 Z " fill="#FFFFFF" transform="translate(123,38)"/>
<path d="M0 0 C2 1 2 1 2 1 Z " fill="#FFFFFF" transform="translate(372,37)"/>
<path d="M0 0 C2 1 2 1 2 1 Z " fill="#FFFFFF" transform="translate(126,36)"/>
<path d="M0 0 C2 1 2 1 2 1 Z " fill="#FFFFFF" transform="translate(369,35)"/>
<path d="M0 0 C2 1 2 1 2 1 Z " fill="#FFFFFF" transform="translate(129,34)"/>
<path d="M0 0 C2 1 2 1 2 1 Z " fill="#FFFFFF" transform="translate(366,33)"/>
<path d="M0 0 C2 1 2 1 2 1 Z " fill="#FFFFFF" transform="translate(132,32)"/>
<path d="M0 0 C2 1 2 1 2 1 Z " fill="#FFFFFF" transform="translate(361,30)"/>
<path d="M0 0 C2 1 2 1 2 1 Z " fill="#FFFFFF" transform="translate(137,29)"/>
<path d="M0 0 C2 1 2 1 2 1 Z " fill="#FFFFFF" transform="translate(139,28)"/>
<path d="M0 0 C2 1 2 1 2 1 Z " fill="#FFFFFF" transform="translate(356,27)"/>
<path d="M0 0 C2 1 2 1 2 1 Z " fill="#FFFFFF" transform="translate(354,26)"/>
<path d="M0 0 C2 1 2 1 2 1 Z " fill="#FFFFFF" transform="translate(352,25)"/>
<path d="M0 0 C2 1 2 1 2 1 Z " fill="#FFFFFF" transform="translate(350,24)"/>
<path d="M0 0 C2 1 2 1 2 1 Z " fill="#FFFFFF" transform="translate(146,24)"/>
<path d="M0 0 C2 1 2 1 2 1 Z " fill="#FFFFFF" transform="translate(348,23)"/>
<path d="M0 0 C2 1 2 1 2 1 Z " fill="#FFFFFF" transform="translate(148,23)"/>
<path d="M0 0 C2 1 2 1 2 1 Z " fill="#FFFFFF" transform="translate(346,22)"/>
<path d="M0 0 C2 1 2 1 2 1 Z " fill="#FFFFFF" transform="translate(150,22)"/>
<path d="M0 0 C2 1 2 1 2 1 Z " fill="#FFFFFF" transform="translate(344,21)"/>
<path d="M0 0 C2 1 2 1 2 1 Z " fill="#FFFFFF" transform="translate(152,21)"/>
<path d="M0 0 C2 1 2 1 2 1 Z " fill="#FFFFFF" transform="translate(342,20)"/>
<path d="M0 0 C2 1 2 1 2 1 Z " fill="#FFFFFF" transform="translate(340,19)"/>
<path d="M0 0 C2 1 2 1 2 1 Z " fill="#FFFFFF" transform="translate(157,19)"/>
<path d="M0 0 C2 1 2 1 2 1 Z " fill="#FFFFFF" transform="translate(338,18)"/>
<path d="M0 0 C2 1 2 1 2 1 Z " fill="#FFFFFF" transform="translate(159,18)"/>
<path d="M0 0 C2 1 2 1 2 1 Z " fill="#FFFFFF" transform="translate(335,17)"/>
<path d="M0 0 C2 1 2 1 2 1 Z " fill="#FFFFFF" transform="translate(161,17)"/>
<path d="M0 0 C2 1 2 1 2 1 Z " fill="#FFFFFF" transform="translate(333,16)"/>
<path d="M0 0 C2 1 2 1 2 1 Z " fill="#FFFFFF" transform="translate(164,16)"/>
<path d="M0 0 C2 1 2 1 2 1 Z " fill="#FFFFFF" transform="translate(166,15)"/>
<path d="M0 0 C2 1 2 1 2 1 Z " fill="#FFFFFF" transform="translate(328,14)"/>
<path d="M0 0 C2 1 2 1 2 1 Z " fill="#FFFFFF" transform="translate(169,14)"/>
<path d="M0 0 C2 1 2 1 2 1 Z " fill="#FFFFFF" transform="translate(325,13)"/>
<path d="M0 0 C2 1 2 1 2 1 Z " fill="#FFFFFF" transform="translate(171,13)"/>
<path d="M0 0 C2 1 2 1 2 1 Z " fill="#FFFFFF" transform="translate(174,12)"/>
<path d="M0 0 C2 1 2 1 2 1 Z " fill="#FFFFFF" transform="translate(320,11)"/>
<path d="M0 0 C2 1 2 1 2 1 Z " fill="#FFFFFF" transform="translate(177,11)"/>
<path d="M0 0 C2 1 2 1 2 1 Z " fill="#FFFFFF" transform="translate(180,10)"/>
<path d="M0 0 C2 1 2 1 2 1 Z " fill="#FFFFFF" transform="translate(183,9)"/>
<path d="M0 0 C2 1 2 1 2 1 Z " fill="#FFFFFF" transform="translate(310,8)"/>
<path d="M0 0 C2 1 2 1 2 1 Z " fill="#FFFFFF" transform="translate(190,7)"/>
<path d="" fill="#FFFFFF" transform="translate(0,0)"/>
<path d="" fill="#FFFFFF" transform="translate(0,0)"/>
<path d="" fill="#FFFFFF" transform="translate(0,0)"/>
<path d="" fill="#FFFFFF" transform="translate(0,0)"/>
<path d="" fill="#FFFFFF" transform="translate(0,0)"/>
<path d="" fill="#FFFFFF" transform="translate(0,0)"/>
<path d="" fill="#FFFFFF" transform="translate(0,0)"/>
<path d="" fill="#FFFFFF" transform="translate(0,0)"/>
<path d="" fill="#FFFFFF" transform="translate(0,0)"/>
<path d="" fill="#FFFFFF" transform="translate(0,0)"/>
<path d="" fill="#FFFFFF" transform="translate(0,0)"/>
<path d="" fill="#FFFFFF" transform="translate(0,0)"/>
<path d="" fill="#FFFFFF" transform="translate(0,0)"/>
<path d="" fill="#FFFFFF" transform="translate(0,0)"/>
<path d="" fill="#FFFFFF" transform="translate(0,0)"/>
<path d="" fill="#FFFFFF" transform="translate(0,0)"/>
<path d="" fill="#FFFFFF" transform="translate(0,0)"/>
<path d="" fill="#FFFFFF" transform="translate(0,0)"/>
<path d="" fill="#FFFFFF" transform="translate(0,0)"/>
<path d="" fill="#FFFFFF" transform="translate(0,0)"/>
<path d="" fill="#FFFFFF" transform="translate(0,0)"/>
<path d="" fill="#FFFFFF" transform="translate(0,0)"/>
<path d="" fill="#FFFFFF" transform="translate(0,0)"/>
<path d="" fill="#FFFFFF" transform="translate(0,0)"/>
<path d="" fill="#FFFFFF" transform="translate(0,0)"/>
<path d="" fill="#FFFFFF" transform="translate(0,0)"/>
<path d="" fill="#FFFFFF" transform="translate(0,0)"/>
<path d="" fill="#FFFFFF" transform="translate(0,0)"/>
<path d="" fill="#FFFFFF" transform="translate(0,0)"/>
<path d="" fill="#FFFFFF" transform="translate(0,0)"/>
<path d="" fill="#FFFFFF" transform="translate(0,0)"/>
<path d="" fill="#FFFFFF" transform="translate(0,0)"/>
<path d="" fill="#FFFFFF" transform="translate(0,0)"/>
<path d="" fill="#FFFFFF" transform="translate(0,0)"/>
<path d="" fill="#FFFFFF" transform="translate(0,0)"/>
<path d="" fill="#FFFFFF" transform="translate(0,0)"/>
<path d="" fill="#FFFFFF" transform="translate(0,0)"/>
<path d="" fill="#FFFFFF" transform="translate(0,0)"/>
<path d="" fill="#FFFFFF" transform="translate(0,0)"/>
<path d="" fill="#FFFFFF" transform="translate(0,0)"/>
<path d="" fill="#FFFFFF" transform="translate(0,0)"/>
<path d="" fill="#FFFFFF" transform="translate(0,0)"/>
<path d="" fill="#FFFFFF" transform="translate(0,0)"/>
<path d="" fill="#FFFFFF" transform="translate(0,0)"/>
<path d="" fill="#FFFFFF" transform="translate(0,0)"/>
<path d="" fill="#FFFFFF" transform="translate(0,0)"/>
<path d="" fill="#FFFFFF" transform="translate(0,0)"/>
<path d="" fill="#FFFFFF" transform="translate(0,0)"/>
<path d="" fill="#FFFFFF" transform="translate(0,0)"/>
<path d="" fill="#FFFFFF" transform="translate(0,0)"/>
<path d="" fill="#FFFFFF" transform="translate(0,0)"/>
<path d="" fill="#FFFFFF" transform="translate(0,0)"/>
<path d="" fill="#FFFFFF" transform="translate(0,0)"/>
<path d="" fill="#FFFFFF" transform="translate(0,0)"/>
<path d="" fill="#FFFFFF" transform="translate(0,0)"/>
<path d="" fill="#FFFFFF" transform="translate(0,0)"/>
<path d="" fill="#FFFFFF" transform="translate(0,0)"/>
<path d="" fill="#FFFFFF" transform="translate(0,0)"/>
<path d="" fill="#FFFFFF" transform="translate(0,0)"/>
<path d="" fill="#FFFFFF" transform="translate(0,0)"/>
<path d="" fill="#FFFFFF" transform="translate(0,0)"/>
<path d="" fill="#FFFFFF" transform="translate(0,0)"/>
<path d="" fill="#FFFFFF" transform="translate(0,0)"/>
<path d="" fill="#FFFFFF" transform="translate(0,0)"/>
<path d="" fill="#FFFFFF" transform="translate(0,0)"/>
<path d="" fill="#FFFFFF" transform="translate(0,0)"/>
<path d="" fill="#FFFFFF" transform="translate(0,0)"/>
<path d="" fill="#FFFFFF" transform="translate(0,0)"/>
<path d="" fill="#FFFFFF" transform="translate(0,0)"/>
<path d="" fill="#FFFFFF" transform="translate(0,0)"/>
<path d="" fill="#FFFFFF" transform="translate(0,0)"/>
<path d="" fill="#FFFFFF" transform="translate(0,0)"/>
<path d="" fill="#FFFFFF" transform="translate(0,0)"/>
<path d="" fill="#FFFFFF" transform="translate(0,0)"/>
<path d="" fill="#FFFFFF" transform="translate(0,0)"/>
<path d="" fill="#FFFFFF" transform="translate(0,0)"/>
<path d="" fill="#FFFFFF" transform="translate(0,0)"/>
<path d="" fill="#FFFFFF" transform="translate(0,0)"/>
<path d="" fill="#FFFFFF" transform="translate(0,0)"/>
<path d="" fill="#FFFFFF" transform="translate(0,0)"/>
<path d="" fill="#FFFFFF" transform="translate(0,0)"/>
<path d="" fill="#FFFFFF" transform="translate(0,0)"/>
<path d="" fill="#FFFFFF" transform="translate(0,0)"/>
<path d="" fill="#FFFFFF" transform="translate(0,0)"/>
<path d="" fill="#FFFFFF" transform="translate(0,0)"/>
<path d="" fill="#FFFFFF" transform="translate(0,0)"/>
<path d="" fill="#FFFFFF" transform="translate(0,0)"/>
<path d="" fill="#FFFFFF" transform="translate(0,0)"/>
<path d="" fill="#FFFFFF" transform="translate(0,0)"/>
<path d="" fill="#FFFFFF" transform="translate(0,0)"/>
<path d="" fill="#FFFFFF" transform="translate(0,0)"/>
<path d="" fill="#FFFFFF" transform="translate(0,0)"/>
<path d="" fill="#FFFFFF" transform="translate(0,0)"/>
<path d="" fill="#FFFFFF" transform="translate(0,0)"/>
<path d="" fill="#FFFFFF" transform="translate(0,0)"/>
<path d="" fill="#FFFFFF" transform="translate(0,0)"/>
<path d="" fill="#FFFFFF" transform="translate(0,0)"/>
<path d="" fill="#FFFFFF" transform="translate(0,0)"/>
<path d="" fill="#FFFFFF" transform="translate(0,0)"/>
<path d="" fill="#FFFFFF" transform="translate(0,0)"/>
<path d="" fill="#FFFFFF" transform="translate(0,0)"/>
<path d="" fill="#FFFFFF" transform="translate(0,0)"/>
<path d="" fill="#FFFFFF" transform="translate(0,0)"/>
<path d="" fill="#FFFFFF" transform="translate(0,0)"/>
<path d="" fill="#FFFFFF" transform="translate(0,0)"/>
<path d="" fill="#FFFFFF" transform="translate(0,0)"/>
<path d="" fill="#FFFFFF" transform="translate(0,0)"/>
<path d="" fill="#FFFFFF" transform="translate(0,0)"/>
<path d="" fill="#FFFFFF" transform="translate(0,0)"/>
<path d="" fill="#FFFFFF" transform="translate(0,0)"/>
<path d="" fill="#FFFFFF" transform="translate(0,0)"/>
<path d="" fill="#FFFFFF" transform="translate(0,0)"/>
<path d="" fill="#FFFFFF" transform="translate(0,0)"/>
<path d="" fill="#FFFFFF" transform="translate(0,0)"/>
<path d="" fill="#FFFFFF" transform="translate(0,0)"/>
<path d="" fill="#FFFFFF" transform="translate(0,0)"/>
<path d="" fill="#FFFFFF" transform="translate(0,0)"/>
<path d="" fill="#FFFFFF" transform="translate(0,0)"/>
<path d="" fill="#FFFFFF" transform="translate(0,0)"/>
<path d="" fill="#FFFFFF" transform="translate(0,0)"/>
<path d="" fill="#FFFFFF" transform="translate(0,0)"/>
<path d="" fill="#FFFFFF" transform="translate(0,0)"/>
<path d="" fill="#FFFFFF" transform="translate(0,0)"/>
<path d="" fill="#FFFFFF" transform="translate(0,0)"/>
<path d="" fill="#FFFFFF" transform="translate(0,0)"/>
<path d="" fill="#FFFFFF" transform="translate(0,0)"/>
<path d="" fill="#FFFFFF" transform="translate(0,0)"/>
<path d="" fill="#FFFFFF" transform="translate(0,0)"/>
<path d="" fill="#FFFFFF" transform="translate(0,0)"/>
<path d="" fill="#FFFFFF" transform="translate(0,0)"/>
<path d="" fill="#FFFFFF" transform="translate(0,0)"/>
<path d="" fill="#FFFFFF" transform="translate(0,0)"/>
<path d="" fill="#FFFFFF" transform="translate(0,0)"/>
<path d="" fill="#FFFFFF" transform="translate(0,0)"/>
<path d="" fill="#FFFFFF" transform="translate(0,0)"/>
<path d="" fill="#FFFFFF" transform="translate(0,0)"/>
<path d="" fill="#FFFFFF" transform="translate(0,0)"/>
<path d="" fill="#FFFFFF" transform="translate(0,0)"/>
<path d="" fill="#FFFFFF" transform="translate(0,0)"/>
<path d="" fill="#FFFFFF" transform="translate(0,0)"/>
<path d="" fill="#FFFFFF" transform="translate(0,0)"/>
<path d="" fill="#FFFFFF" transform="translate(0,0)"/>
<path d="" fill="#FFFFFF" transform="translate(0,0)"/>
<path d="" fill="#FFFFFF" transform="translate(0,0)"/>
<path d="" fill="#FFFFFF" transform="translate(0,0)"/>
<path d="" fill="#FFFFFF" transform="translate(0,0)"/>
<path d="" fill="#FFFFFF" transform="translate(0,0)"/>
<path d="" fill="#FFFFFF" transform="translate(0,0)"/>
<path d="" fill="#FFFFFF" transform="translate(0,0)"/>
<path d="" fill="#FFFFFF" transform="translate(0,0)"/>
<path d="" fill="#FFFFFF" transform="translate(0,0)"/>
<path d="" fill="#FFFFFF" transform="translate(0,0)"/>
<path d="" fill="#FFFFFF" transform="translate(0,0)"/>
<path d="" fill="#FFFFFF" transform="translate(0,0)"/>
<path d="" fill="#FFFFFF" transform="translate(0,0)"/>
<path d="" fill="#FFFFFF" transform="translate(0,0)"/>
<path d="" fill="#FFFFFF" transform="translate(0,0)"/>
<path d="" fill="#FFFFFF" transform="translate(0,0)"/>
<path d="" fill="#FFFFFF" transform="translate(0,0)"/>
<path d="" fill="#FFFFFF" transform="translate(0,0)"/>
<path d="" fill="#FFFFFF" transform="translate(0,0)"/>
<path d="" fill="#FFFFFF" transform="translate(0,0)"/>
<path d="" fill="#FFFFFF" transform="translate(0,0)"/>
<path d="" fill="#FFFFFF" transform="translate(0,0)"/>
<path d="" fill="#FFFFFF" transform="translate(0,0)"/>
<path d="" fill="#FFFFFF" transform="translate(0,0)"/>
<path d="" fill="#FFFFFF" transform="translate(0,0)"/>
<path d="" fill="#FFFFFF" transform="translate(0,0)"/>
<path d="" fill="#FFFFFF" transform="translate(0,0)"/>
<path d="" fill="#FFFFFF" transform="translate(0,0)"/>
<path d="" fill="#FFFFFF" transform="translate(0,0)"/>
<path d="" fill="#FFFFFF" transform="translate(0,0)"/>
<path d="" fill="#FFFFFF" transform="translate(0,0)"/>
<path d="" fill="#FFFFFF" transform="translate(0,0)"/>
<path d="" fill="#FFFFFF" transform="translate(0,0)"/>
<path d="" fill="#FFFFFF" transform="translate(0,0)"/>
<path d="" fill="#FFFFFF" transform="translate(0,0)"/>
<path d="" fill="#FFFFFF" transform="translate(0,0)"/>
<path d="" fill="#FFFFFF" transform="translate(0,0)"/>
<path d="" fill="#FFFFFF" transform="translate(0,0)"/>
<path d="" fill="#FFFFFF" transform="translate(0,0)"/>
<path d="" fill="#FFFFFF" transform="translate(0,0)"/>
<path d="" fill="#FFFFFF" transform="translate(0,0)"/>
<path d="" fill="#FFFFFF" transform="translate(0,0)"/>
<path d="" fill="#FFFFFF" transform="translate(0,0)"/>
<path d="" fill="#FFFFFF" transform="translate(0,0)"/>
<path d="" fill="#FFFFFF" transform="translate(0,0)"/>
<path d="" fill="#FFFFFF" transform="translate(0,0)"/>
<path d="" fill="#FFFFFF" transform="translate(0,0)"/>
<path d="" fill="#FFFFFF" transform="translate(0,0)"/>
<path d="" fill="#FFFFFF" transform="translate(0,0)"/>
<path d="" fill="#FFFFFF" transform="translate(0,0)"/>
<path d="" fill="#FFFFFF" transform="translate(0,0)"/>
<path d="" fill="#FFFFFF" transform="translate(0,0)"/>
<path d="" fill="#FFFFFF" transform="translate(0,0)"/>
<path d="" fill="#FFFFFF" transform="translate(0,0)"/>
<path d="" fill="#FFFFFF" transform="translate(0,0)"/>
<path d="" fill="#FFFFFF" transform="translate(0,0)"/>
<path d="" fill="#FFFFFF" transform="translate(0,0)"/>
<path d="" fill="#FFFFFF" transform="translate(0,0)"/>
<path d="" fill="#FFFFFF" transform="translate(0,0)"/>
<path d="" fill="#FFFFFF" transform="translate(0,0)"/>
<path d="" fill="#FFFFFF" transform="translate(0,0)"/>
<path d="" fill="#FFFFFF" transform="translate(0,0)"/>
<path d="" fill="#FFFFFF" transform="translate(0,0)"/>
<path d="" fill="#FFFFFF" transform="translate(0,0)"/>
<path d="" fill="#FFFFFF" transform="translate(0,0)"/>
<path d="" fill="#FFFFFF" transform="translate(0,0)"/>
<path d="" fill="#FFFFFF" transform="translate(0,0)"/>
<path d="" fill="#FFFFFF" transform="translate(0,0)"/>
<path d="" fill="#FFFFFF" transform="translate(0,0)"/>
<path d="" fill="#FFFFFF" transform="translate(0,0)"/>
<path d="" fill="#FFFFFF" transform="translate(0,0)"/>
<path d="" fill="#FFFFFF" transform="translate(0,0)"/>
<path d="" fill="#FFFFFF" transform="translate(0,0)"/>
<path d="" fill="#FFFFFF" transform="translate(0,0)"/>
<path d="" fill="#FFFFFF" transform="translate(0,0)"/>
</svg>
