<?xml version="1.0" encoding="UTF-8"?>
<svg version="1.1" xmlns="http://www.w3.org/2000/svg" width="2048" height="2048">
<path d="M0 0 C1.86259995 -0.00706392 3.72519963 -0.01419661 5.58779907 -0.02139282 C11.51166174 -0.04092885 17.43548314 -0.04608515 23.359375 -0.046875 C24.87433437 -0.04731686 24.87433437 -0.04731686 26.41989899 -0.04776764 C56.74857791 -0.04919701 86.90719521 0.14810975 117.109375 3.203125 C118.6182428 3.35231384 118.6182428 3.35231384 120.15759277 3.5045166 C195.67082283 10.99608031 269.92810251 25.63533341 342.109375 49.203125 C342.89296387 49.45815796 343.67655273 49.71319092 344.48388672 49.97595215 C404.4611034 69.52906545 462.91934511 94.61465175 518.109375 125.203125 C520.22761916 126.36242772 522.34610764 127.52128411 524.46484375 128.6796875 C546.62141038 140.86631466 568.00752438 154.28282557 589.109375 168.203125 C590.16382813 168.89277344 591.21828125 169.58242187 592.3046875 170.29296875 C613.18133271 184.04596761 633.40057925 198.82976599 653.109375 214.203125 C653.91737549 214.82985107 653.91737549 214.82985107 654.74169922 215.46923828 C672.49036144 229.23698879 689.8896084 243.53121783 706.4140625 258.75390625 C708.57147369 260.71433642 710.74975042 262.63829295 712.94921875 264.55078125 C716.97482223 268.06397509 720.90216038 271.67080992 724.796875 275.328125 C725.48313965 275.97120605 726.1694043 276.61428711 726.87646484 277.27685547 C731.94573327 282.05075843 736.90706795 286.92105555 741.7722168 291.90283203 C744.11696379 294.28846899 746.42914802 296.4615016 749.0390625 298.5703125 C752.15839496 301.10761208 754.65680552 304.04618647 757.26171875 307.09765625 C760.36977949 310.63939988 763.7468874 313.90505287 767.109375 317.203125 C771.75032723 321.7551701 776.21365613 326.37032611 780.45703125 331.296875 C782.94047773 334.16193855 785.52467036 336.92967143 788.109375 339.703125 C792.52505479 344.4684334 796.8883441 349.2634272 801.109375 354.203125 C802.285 355.57791016 802.285 355.57791016 803.484375 356.98046875 C814.68823455 370.1321018 825.65666637 383.44589949 836.109375 397.203125 C836.89441406 398.21246094 837.67945313 399.22179687 838.48828125 400.26171875 C845.60007323 409.40545129 852.37993668 418.77549664 859.109375 428.203125 C859.63354004 428.93644043 860.15770508 429.66975586 860.69775391 430.42529297 C867.6939313 440.22696604 874.51047022 450.12975788 881.109375 460.203125 C881.53541016 460.8518457 881.96144531 461.50056641 882.40039062 462.16894531 C900.47170962 489.73105332 917.07363187 518.08118661 932.51318359 547.19873047 C933.98968518 549.97784159 935.47924359 552.74948321 936.97265625 555.51953125 C944.28881679 569.17304033 950.84641272 583.15893745 957.23181152 597.26696777 C958.12059153 599.22787188 959.01356196 601.18682557 959.90722656 603.14550781 C995.70102601 681.73128981 1020.79550617 765.0513428 1049.3125 999.12890625 C1049.31952098 1000.99458846 1049.32660781 1002.86027042 1049.33375549 1004.72595215 C1049.35315944 1010.65584661 1049.35818948 1016.585702 1049.359375 1022.515625 C1049.35981686 1023.52542294 1049.36025871 1024.53522087 1049.36071396 1025.57561874 C1049.3673949 1054.6779692 1049.2827573 1083.66661287 1046.36584473 1112.65155029 C1046.094298 1115.35312359 1045.83342293 1118.05561052 1045.57324219 1120.75830078 C1038.36024908 1194.80312992 1024.17418688 1268.18800877 1000.86401367 1338.91241455 C1000.09477617 1341.24743983 999.33133479 1343.58430861 998.56835938 1345.92138672 C983.90026396 1390.70627493 965.88503934 1434.12539499 945.01623535 1476.36401367 C944.08909005 1478.24426285 943.16650739 1480.12669014 942.24511719 1482.00976562 C934.55654872 1497.71482096 926.57595776 1513.17207699 917.78808594 1528.29882812 C916.003418 1531.38643862 914.2461699 1534.4886137 912.4921875 1537.59375 C904.72884244 1551.28308808 896.50877537 1564.56079668 887.79052734 1577.66064453 C885.81693655 1580.6453925 883.88922375 1583.65737022 881.96655273 1586.67504883 C867.5173405 1609.30933244 851.61840903 1631.03428298 835.109375 1652.203125 C834.21871815 1653.35283991 833.32809416 1654.50258028 832.4375 1655.65234375 C827.02729939 1662.61201661 821.46036874 1669.40769734 815.734375 1676.109375 C813.27021536 1678.9986382 810.872765 1681.93830958 808.484375 1684.890625 C804.86103005 1689.34216308 801.08973628 1693.62694955 797.2265625 1697.87109375 C795.32886331 1699.96136389 793.46204085 1702.07298615 791.609375 1704.203125 C787.49628763 1708.91858672 783.3151328 1713.57021992 779.109375 1718.203125 C778.66464844 1718.69441895 778.21992187 1719.18571289 777.76171875 1719.69189453 C771.33541472 1726.77828202 764.75394978 1733.66532541 757.91723633 1740.35839844 C755.35164548 1742.88481711 752.97181284 1745.37279243 750.69921875 1748.17578125 C748.06931704 1751.24994991 745.28209361 1753.73708473 742.21484375 1756.35546875 C738.67310012 1759.46352949 735.40744713 1762.8406374 732.109375 1766.203125 C727.55342706 1770.8480563 722.93354221 1775.31297704 718.00244141 1779.55957031 C715.1989904 1781.99351824 712.50414154 1784.53843283 709.796875 1787.078125 C704.92697688 1791.61339044 699.91282976 1795.88993051 694.72265625 1800.05859375 C692.11089877 1802.20187456 689.60572198 1804.4269283 687.109375 1806.703125 C681.93390526 1811.40735888 676.5579361 1815.82027987 671.109375 1820.203125 C669.99980717 1821.10523162 668.89044059 1822.00758583 667.78125 1822.91015625 C657.43663682 1831.29332699 646.79924278 1839.26757614 636.109375 1847.203125 C635.28824219 1847.81510742 634.46710938 1848.42708984 633.62109375 1849.05761719 C622.94130757 1857.01635737 612.15567028 1864.76203468 601.109375 1872.203125 C600.11873047 1872.8739209 599.12808594 1873.5447168 598.10742188 1874.23583984 C584.47333833 1883.45925291 570.77266036 1892.46632674 556.55175781 1900.77001953 C554.02727088 1902.25130085 551.51654127 1903.75391865 549.0078125 1905.26171875 C508.63623778 1929.46970422 466.55647844 1951.06261153 423.109375 1969.203125 C422.48405884 1969.46486511 421.85874268 1969.72660522 421.21447754 1969.99627686 C374.12104094 1989.67288893 325.58788755 2005.73471319 276.109375 2018.203125 C275.36490112 2018.39112671 274.62042725 2018.57912842 273.85339355 2018.77282715 C222.88406871 2031.60408647 170.83943079 2040.40013214 118.480896 2044.99023438 C116.13656116 2045.20068451 113.794168 2045.42642506 111.45166016 2045.65625 C54.18169321 2051.19090931 -6.08729434 2051.22115165 -63.33905029 2045.45959473 C-66.04062359 2045.188048 -68.74311052 2044.92717293 -71.44580078 2044.66699219 C-160.30628974 2036.01099102 -247.53699533 2016.49949328 -416.890625 1949.203125 C-418.75641336 1948.33182339 -420.62229643 1947.46072454 -422.48828125 1946.58984375 C-434.13984946 1941.1267872 -445.57950141 1935.3389038 -456.890625 1929.203125 C-457.99003418 1928.60693359 -459.08944336 1928.01074219 -460.22216797 1927.39648438 C-475.65544674 1919.01084651 -490.94684836 1910.44063076 -505.890625 1901.203125 C-506.85871094 1900.60612793 -507.82679688 1900.00913086 -508.82421875 1899.39404297 C-520.99158802 1891.87766211 -533.07953258 1884.2692369 -544.890625 1876.203125 C-545.53402832 1875.76548828 -546.17743164 1875.32785156 -546.84033203 1874.87695312 C-572.98661048 1857.08006555 -598.51901725 1838.37273142 -622.890625 1818.203125 C-624.66130618 1816.76543759 -626.43214392 1815.32794298 -628.203125 1813.890625 C-638.13712505 1805.75380159 -647.81315489 1797.36052345 -657.23828125 1788.640625 C-659.36553034 1786.68568622 -661.51334752 1784.77430455 -663.703125 1782.890625 C-674.99721725 1773.06663153 -685.67014409 1762.57152609 -696.18408203 1751.92553711 C-700.08319129 1747.99017004 -704.01338045 1744.08611634 -707.9453125 1740.18359375 C-709.39150774 1738.74478042 -710.83721645 1737.30548019 -712.28271484 1735.8659668 C-713.266837 1734.88686733 -714.25185562 1733.90866805 -715.23779297 1732.93139648 C-720.45199576 1727.76161807 -725.58022048 1722.56597997 -730.35693359 1716.98413086 C-732.74543592 1714.21047208 -735.26175276 1711.55970813 -737.765625 1708.890625 C-742.30411024 1704.01726951 -746.58411297 1699.00008523 -750.75390625 1693.8046875 C-752.84944994 1691.25325771 -755.03025655 1688.81985727 -757.265625 1686.390625 C-761.32935279 1681.93112546 -765.04946477 1677.26788773 -768.74267578 1672.50317383 C-771.62793986 1668.78690972 -774.58920766 1665.16088367 -777.640625 1661.578125 C-784.07983346 1653.9060934 -790.00454146 1645.84835557 -795.96484375 1637.80224609 C-797.83155867 1635.28284358 -799.70439552 1632.76809412 -801.578125 1630.25390625 C-808.91344033 1620.3865887 -816.02182849 1610.39985038 -822.890625 1600.203125 C-823.5614209 1599.21248047 -824.2322168 1598.22183594 -824.92333984 1597.20117188 C-834.14675291 1583.56708833 -843.15382674 1569.86641036 -851.45751953 1555.64550781 C-852.93880085 1553.12102088 -854.44141865 1550.61029127 -855.94921875 1548.1015625 C-874.75161761 1516.73232818 -891.97110542 1484.44302651 -907.02734375 1451.11071777 C-907.90790183 1449.16494839 -908.7933187 1447.22144889 -909.6796875 1445.27832031 C-946.31073981 1364.85218432 -972.39755509 1279.01247587 -999.09375 1049.8046875 C-999.09657738 1048.86328289 -999.09940475 1047.92187828 -999.10231781 1046.95194626 C-999.11718785 1041.94631438 -999.12648773 1036.9407103 -999.13085938 1031.93505859 C-999.13519268 1027.91022419 -999.14889992 1023.88561038 -999.171875 1019.86083984 C-999.64047243 935.98691734 -988.88910625 852.81374981 -968.4630127 771.48278809 C-968.08641997 769.98292261 -967.71129753 768.48268707 -967.33776855 766.98205566 C-951.44003825 703.13156514 -927.94489537 641.63326115 -899.890625 582.203125 C-899.15465088 580.63062988 -899.15465088 580.63062988 -898.40380859 579.02636719 C-891.86183738 565.05739711 -884.91119521 551.40921435 -877.40380859 537.93554688 C-875.84613528 535.12278796 -874.31239461 532.29813986 -872.78515625 529.46875 C-867.49727455 519.67380931 -862.13194484 509.96487138 -856.29443359 500.48632812 C-854.56457813 497.67283103 -852.84738537 494.85170968 -851.12890625 492.03125 C-844.370287 480.96368054 -837.59463573 469.92243217 -830.26757812 459.21923828 C-828.63801534 456.83325788 -827.02237076 454.43807361 -825.40625 452.04296875 C-812.50092523 432.95863989 -798.96097951 414.44400004 -784.890625 396.203125 C-784.36162598 395.51669922 -783.83262695 394.83027344 -783.28759766 394.12304688 C-777.54370075 386.68819858 -771.61894831 379.43910839 -765.515625 372.296875 C-763.05146536 369.4076118 -760.654015 366.46794042 -758.265625 363.515625 C-754.64228005 359.06408692 -750.87098628 354.77930045 -747.0078125 350.53515625 C-745.11011331 348.44488611 -743.24329085 346.33326385 -741.390625 344.203125 C-737.27753191 339.48765672 -733.09605399 334.83633628 -728.890625 330.203125 C-728.45121582 329.71714844 -728.01180664 329.23117187 -727.55908203 328.73046875 C-719.84052069 320.20817441 -711.82397461 312.02160796 -703.64477539 303.94140625 C-699.62586398 299.95885242 -695.63875652 295.94472215 -691.65234375 291.9296875 C-690.1440327 290.41399253 -688.6352345 288.89878437 -687.1262207 287.38378906 C-686.0986193 286.3511639 -685.07191786 285.31764232 -684.04614258 284.28320312 C-678.72787203 278.92138918 -673.39928423 273.62980609 -667.65405273 268.71923828 C-664.8847682 266.33833603 -662.24115997 263.82632344 -659.578125 261.328125 C-654.70476951 256.78963976 -649.68758523 252.50963703 -644.4921875 248.33984375 C-641.94075771 246.24430006 -639.50735727 244.06349345 -637.078125 241.828125 C-632.61862546 237.76439721 -627.95538773 234.04428523 -623.19067383 230.35107422 C-619.47440972 227.46581014 -615.84838367 224.50454234 -612.265625 221.453125 C-604.58949832 215.0104795 -596.52711461 209.08337852 -588.4765625 203.12011719 C-585.99573127 201.28104177 -583.52079065 199.43430013 -581.046875 197.5859375 C-556.98941722 179.66452206 -531.91069474 162.93504262 -506.15283203 147.55419922 C-504.58679886 146.61890593 -503.02280134 145.68019891 -501.46044922 144.73876953 C-479.80718486 131.69358223 -457.74270594 119.31683878 -435.01220703 108.24414062 C-433.05497647 107.28376881 -431.10939344 106.30435451 -429.16796875 105.3125 C-355.88520902 67.90683352 -277.07146917 41.24048761 0 0 Z " fill="#E967A2" transform="translate(998.890625,-0.203125)"/>
<path d="M0 0 C1.86259995 -0.00706392 3.72519963 -0.01419661 5.58779907 -0.02139282 C11.51166174 -0.04092885 17.43548314 -0.04608515 23.359375 -0.046875 C24.87433437 -0.04731686 24.87433437 -0.04731686 26.41989899 -0.04776764 C56.74857791 -0.04919701 86.90719521 0.14810975 117.109375 3.203125 C118.6182428 3.35231384 118.6182428 3.35231384 120.15759277 3.5045166 C195.67082283 10.99608031 269.92810251 25.63533341 342.109375 49.203125 C342.89296387 49.45815796 343.67655273 49.71319092 344.48388672 49.97595215 C404.4611034 69.52906545 462.91934511 94.61465175 518.109375 125.203125 C520.22761916 126.36242772 522.34610764 127.52128411 524.46484375 128.6796875 C546.62141038 140.86631466 568.00752438 154.28282557 589.109375 168.203125 C590.16382813 168.89277344 591.21828125 169.58242187 592.3046875 170.29296875 C613.18133271 184.04596761 633.40057925 198.82976599 653.109375 214.203125 C653.91737549 214.82985107 653.91737549 214.82985107 654.74169922 215.46923828 C672.49036144 229.23698879 689.8896084 243.53121783 706.4140625 258.75390625 C708.57147369 260.71433642 710.74975042 262.63829295 712.94921875 264.55078125 C716.97482223 268.06397509 720.90216038 271.67080992 724.796875 275.328125 C725.48313965 275.97120605 726.1694043 276.61428711 726.87646484 277.27685547 C731.94573327 282.05075843 736.90706795 286.92105555 741.7722168 291.90283203 C744.11696379 294.28846899 746.42914802 296.4615016 749.0390625 298.5703125 C752.15839496 301.10761208 754.65680552 304.04618647 757.26171875 307.09765625 C760.36977949 310.63939988 763.7468874 313.90505287 767.109375 317.203125 C771.75032723 321.7551701 776.21365613 326.37032611 780.45703125 331.296875 C782.94047773 334.16193855 785.52467036 336.92967143 788.109375 339.703125 C792.52505479 344.4684334 796.8883441 349.2634272 801.109375 354.203125 C802.285 355.57791016 802.285 355.57791016 803.484375 356.98046875 C814.68823455 370.1321018 825.65666637 383.44589949 836.109375 397.203125 C836.89441406 398.21246094 837.67945313 399.22179687 838.48828125 400.26171875 C845.60007323 409.40545129 852.37993668 418.77549664 859.109375 428.203125 C859.63354004 428.93644043 860.15770508 429.66975586 860.69775391 430.42529297 C867.6939313 440.22696604 874.51047022 450.12975788 881.109375 460.203125 C881.53541016 460.8518457 881.96144531 461.50056641 882.40039062 462.16894531 C900.47170962 489.73105332 917.07363187 518.08118661 932.51318359 547.19873047 C933.98968518 549.97784159 935.47924359 552.74948321 936.97265625 555.51953125 C944.28881679 569.17304033 950.84641272 583.15893745 957.23181152 597.26696777 C958.12059153 599.22787188 959.01356196 601.18682557 959.90722656 603.14550781 C995.70102601 681.73128981 1020.79550617 765.0513428 1049.3125 999.12890625 C1049.31952098 1000.99458846 1049.32660781 1002.86027042 1049.33375549 1004.72595215 C1049.35315944 1010.65584661 1049.35818948 1016.585702 1049.359375 1022.515625 C1049.35981686 1023.52542294 1049.36025871 1024.53522087 1049.36071396 1025.57561874 C1049.3673949 1054.6779692 1049.2827573 1083.66661287 1046.36584473 1112.65155029 C1046.094298 1115.35312359 1045.83342293 1118.05561052 1045.57324219 1120.75830078 C1038.36024908 1194.80312992 1024.17418688 1268.18800877 1000.86401367 1338.91241455 C1000.09477617 1341.24743983 999.33133479 1343.58430861 998.56835938 1345.92138672 C983.90026396 1390.70627493 965.88503934 1434.12539499 945.01623535 1476.36401367 C944.08909005 1478.24426285 943.16650739 1480.12669014 942.24511719 1482.00976562 C934.55654872 1497.71482096 926.57595776 1513.17207699 917.78808594 1528.29882812 C916.003418 1531.38643862 914.2461699 1534.4886137 912.4921875 1537.59375 C904.72884244 1551.28308808 896.50877537 1564.56079668 887.79052734 1577.66064453 C885.81693655 1580.6453925 883.88922375 1583.65737022 881.96655273 1586.67504883 C867.5173405 1609.30933244 851.61840903 1631.03428298 835.109375 1652.203125 C834.21871815 1653.35283991 833.32809416 1654.50258028 832.4375 1655.65234375 C827.02729939 1662.61201661 821.46036874 1669.40769734 815.734375 1676.109375 C813.27021536 1678.9986382 810.872765 1681.93830958 808.484375 1684.890625 C804.86103005 1689.34216308 801.08973628 1693.62694955 797.2265625 1697.87109375 C795.32886331 1699.96136389 793.46204085 1702.07298615 791.609375 1704.203125 C787.49628763 1708.91858672 783.3151328 1713.57021992 779.109375 1718.203125 C778.66464844 1718.69441895 778.21992187 1719.18571289 777.76171875 1719.69189453 C771.33541472 1726.77828202 764.75394978 1733.66532541 757.91723633 1740.35839844 C755.35164548 1742.88481711 752.97181284 1745.37279243 750.69921875 1748.17578125 C748.06931704 1751.24994991 745.28209361 1753.73708473 742.21484375 1756.35546875 C738.67310012 1759.46352949 735.40744713 1762.8406374 732.109375 1766.203125 C727.55342706 1770.8480563 722.93354221 1775.31297704 718.00244141 1779.55957031 C715.1989904 1781.99351824 712.50414154 1784.53843283 709.796875 1787.078125 C704.92697688 1791.61339044 699.91282976 1795.88993051 694.72265625 1800.05859375 C692.11089877 1802.20187456 689.60572198 1804.4269283 687.109375 1806.703125 C681.93390526 1811.40735888 676.5579361 1815.82027987 671.109375 1820.203125 C669.99980717 1821.10523162 668.89044059 1822.00758583 667.78125 1822.91015625 C657.43663682 1831.29332699 646.79924278 1839.26757614 636.109375 1847.203125 C635.28824219 1847.81510742 634.46710938 1848.42708984 633.62109375 1849.05761719 C622.94130757 1857.01635737 612.15567028 1864.76203468 601.109375 1872.203125 C600.11873047 1872.8739209 599.12808594 1873.5447168 598.10742188 1874.23583984 C584.47333833 1883.45925291 570.77266036 1892.46632674 556.55175781 1900.77001953 C554.02727088 1902.25130085 551.51654127 1903.75391865 549.0078125 1905.26171875 C508.63623778 1929.46970422 466.55647844 1951.06261153 423.109375 1969.203125 C422.48405884 1969.46486511 421.85874268 1969.72660522 421.21447754 1969.99627686 C374.12104094 1989.67288893 325.58788755 2005.73471319 276.109375 2018.203125 C275.36490112 2018.39112671 274.62042725 2018.57912842 273.85339355 2018.77282715 C222.88406871 2031.60408647 170.83943079 2040.40013214 118.480896 2044.99023438 C116.13656116 2045.20068451 113.794168 2045.42642506 111.45166016 2045.65625 C54.18169321 2051.19090931 -6.08729434 2051.22115165 -63.33905029 2045.45959473 C-66.04062359 2045.188048 -68.74311052 2044.92717293 -71.44580078 2044.66699219 C-160.30628974 2036.01099102 -247.53699533 2016.49949328 -416.890625 1949.203125 C-418.75641336 1948.33182339 -420.62229643 1947.46072454 -422.48828125 1946.58984375 C-434.13984946 1941.1267872 -445.57950141 1935.3389038 -456.890625 1929.203125 C-457.99003418 1928.60693359 -459.08944336 1928.01074219 -460.22216797 1927.39648438 C-475.65544674 1919.01084651 -490.94684836 1910.44063076 -505.890625 1901.203125 C-506.85871094 1900.60612793 -507.82679688 1900.00913086 -508.82421875 1899.39404297 C-520.99158802 1891.87766211 -533.07953258 1884.2692369 -544.890625 1876.203125 C-545.53402832 1875.76548828 -546.17743164 1875.32785156 -546.84033203 1874.87695312 C-572.98661048 1857.08006555 -598.51901725 1838.37273142 -622.890625 1818.203125 C-624.66130618 1816.76543759 -626.43214392 1815.32794298 -628.203125 1813.890625 C-638.13712505 1805.75380159 -647.81315489 1797.36052345 -657.23828125 1788.640625 C-659.36553034 1786.68568622 -661.51334752 1784.77430455 -663.703125 1782.890625 C-674.99721725 1773.06663153 -685.67014409 1762.57152609 -696.18408203 1751.92553711 C-700.08319129 1747.99017004 -704.01338045 1744.08611634 -707.9453125 1740.18359375 C-709.39150774 1738.74478042 -710.83721645 1737.30548019 -712.28271484 1735.8659668 C-713.266837 1734.88686733 -714.25185562 1733.90866805 -715.23779297 1732.93139648 C-720.45199576 1727.76161807 -725.58022048 1722.56597997 -730.35693359 1716.98413086 C-732.74543592 1714.21047208 -735.26175276 1711.55970813 -737.765625 1708.890625 C-742.30411024 1704.01726951 -746.58411297 1699.00008523 -750.75390625 1693.8046875 C-752.84944994 1691.25325771 -755.03025655 1688.81985727 -757.265625 1686.390625 C-761.32935279 1681.93112546 -765.04946477 1677.26788773 -768.74267578 1672.50317383 C-771.62793986 1668.78690972 -774.58920766 1665.16088367 -777.640625 1661.578125 C-784.07983346 1653.9060934 -790.00454146 1645.84835557 -795.96484375 1637.80224609 C-797.83155867 1635.28284358 -799.70439552 1632.76809412 -801.578125 1630.25390625 C-808.91344033 1620.3865887 -816.02182849 1610.39985038 -822.890625 1600.203125 C-823.5614209 1599.21248047 -824.2322168 1598.22183594 -824.92333984 1597.20117188 C-834.14675291 1583.56708833 -843.15382674 1569.86641036 -851.45751953 1555.64550781 C-852.93880085 1553.12102088 -854.44141865 1550.61029127 -855.94921875 1548.1015625 C-874.75161761 1516.73232818 -891.97110542 1484.44302651 -907.02734375 1451.11071777 C-907.90790183 1449.16494839 -908.7933187 1447.22144889 -909.6796875 1445.27832031 C-946.31073981 1364.85218432 -972.39755509 1279.01247587 -999.09375 1049.8046875 C-999.09657738 1048.86328289 -999.09940475 1047.92187828 -999.10231781 1046.95194626 C-999.11718785 1041.94631438 -999.12648773 1036.9407103 -999.13085938 1031.93505859 C-999.13519268 1027.91022419 -999.14889992 1023.88561038 -999.171875 1019.86083984 C-999.64047243 935.98691734 -988.88910625 852.81374981 -968.4630127 771.48278809 C-968.08641997 769.98292261 -967.71129753 768.48268707 -967.33776855 766.98205566 C-951.44003825 703.13156514 -927.94489537 641.63326115 -899.890625 582.203125 C-899.15465088 580.63062988 -899.15465088 580.63062988 -898.40380859 579.02636719 C-891.86183738 565.05739711 -884.91119521 551.40921435 -877.40380859 537.93554688 C-875.84613528 535.12278796 -874.31239461 532.29813986 -872.78515625 529.46875 C-867.49727455 519.67380931 -862.13194484 509.96487138 -856.29443359 500.48632812 C-854.56457813 497.67283103 -852.84738537 494.85170968 -851.12890625 492.03125 C-844.370287 480.96368054 -837.59463573 469.92243217 -830.26757812 459.21923828 C-828.63801534 456.83325788 -827.02237076 454.43807361 -825.40625 452.04296875 C-812.50092523 432.95863989 -798.96097951 414.44400004 -784.890625 396.203125 C-784.36162598 395.51669922 -783.83262695 394.83027344 -783.28759766 394.12304688 C-777.54370075 386.68819858 -771.61894831 379.43910839 -765.515625 372.296875 C-763.05146536 369.4076118 -760.654015 366.46794042 -758.265625 363.515625 C-754.64228005 359.06408692 -750.87098628 354.77930045 -747.0078125 350.53515625 C-745.11011331 348.44488611 -743.24329085 346.33326385 -741.390625 344.203125 C-737.27753191 339.48765672 -733.09605399 334.83633628 -728.890625 330.203125 C-728.45121582 329.71714844 -728.01180664 329.23117187 -727.55908203 328.73046875 C-719.84052069 320.20817441 -711.82397461 312.02160796 -703.64477539 303.94140625 C-699.62586398 299.95885242 -695.63875652 295.94472215 -691.65234375 291.9296875 C-690.1440327 290.41399253 -688.6352345 288.89878437 -687.1262207 287.38378906 C-686.0986193 286.3511639 -685.07191786 285.31764232 -684.04614258 284.28320312 C-678.72787203 278.92138918 -673.39928423 273.62980609 -667.65405273 268.71923828 C-664.8847682 266.33833603 -662.24115997 263.82632344 -659.578125 261.328125 C-654.70476951 256.78963976 -649.68758523 252.50963703 -644.4921875 248.33984375 C-641.94075771 246.24430006 -639.50735727 244.06349345 -637.078125 241.828125 C-632.61862546 237.76439721 -627.95538773 234.04428523 -623.19067383 230.35107422 C-619.47440972 227.46581014 -615.84838367 224.50454234 -612.265625 221.453125 C-604.58949832 215.0104795 -596.52711461 209.08337852 -588.4765625 203.12011719 C-585.99573127 201.28104177 -583.52079065 199.43430013 -581.046875 197.5859375 C-556.98941722 179.66452206 -531.91069474 162.93504262 -506.15283203 147.55419922 C-504.58679886 146.61890593 -503.02280134 145.68019891 -501.46044922 144.73876953 C-479.80718486 131.69358223 -457.74270594 119.31683878 -435.01220703 108.24414062 C-433.05497647 107.28376881 -431.10939344 106.30435451 -429.16796875 105.3125 C-355.88520902 67.90683352 -277.07146917 41.24048761 0 0 Z M-73.890625 107.203125 C-74.95492737 107.3266333 -76.01922974 107.4501416 -77.11578369 107.57739258 C-104.94428608 110.81828565 -132.52910476 114.94558473 -159.93212891 120.78778076 C-163.15527081 121.47132229 -166.38271779 122.13406536 -169.609375 122.80078125 C-186.61403583 126.34645781 -203.52684777 130.18084535 -220.16088867 135.20751953 C-224.11375822 136.40007561 -228.07374086 137.5295591 -232.06640625 138.58203125 C-262.31704056 146.6228114 -291.96756443 157.27595304 -320.890625 169.203125 C-321.96199707 169.64188965 -323.03336914 170.0806543 -324.13720703 170.53271484 C-360.05534305 185.29086367 -395.59050799 201.99536266 -429.14111328 221.59960938 C-432.03787285 223.28899997 -434.94576358 224.95801567 -437.85546875 226.625 C-451.44779706 234.44260334 -464.74759413 242.653135 -477.890625 251.203125 C-478.95667969 251.8940625 -480.02273438 252.585 -481.12109375 253.296875 C-484.06606898 255.2346942 -486.98450872 257.20778836 -489.890625 259.203125 C-490.69016602 259.75162109 -491.48970703 260.30011719 -492.31347656 260.86523438 C-510.5889571 273.430848 -528.59561025 286.31158533 -545.890625 300.203125 C-546.84316162 300.96641113 -546.84316162 300.96641113 -547.81494141 301.74511719 C-559.3454743 310.99992402 -570.62252927 320.52890323 -581.7109375 330.30859375 C-583.50601612 331.86883234 -585.31432645 333.40871193 -587.1328125 334.94140625 C-593.49312326 340.31566938 -599.63980998 345.73818499 -605.4140625 351.75390625 C-607.31294675 353.6318249 -609.20750746 355.33964335 -611.23828125 357.0625 C-617.43032183 362.43139233 -623.14425213 368.30812785 -628.92700195 374.10913086 C-630.94826768 376.1357548 -632.97482074 378.15698047 -635.00195312 380.17773438 C-643.47026572 388.62798656 -643.47026572 388.62798656 -651.4597168 397.52709961 C-653.95728198 400.45250226 -656.62667669 403.21830747 -659.265625 406.015625 C-663.99258876 411.06223444 -668.46571643 416.23646648 -672.7890625 421.63671875 C-674.87063927 424.17871863 -677.0410088 426.59841835 -679.265625 429.015625 C-683.24674356 433.38934521 -686.9072882 437.94641278 -690.52734375 442.61743164 C-693.5037774 446.45430471 -696.54190257 450.22924389 -699.63378906 453.97363281 C-706.56901305 462.38637908 -712.99171284 471.09374636 -719.30078125 479.98242188 C-720.80027147 482.07691866 -722.32331639 484.15097879 -723.859375 486.21875 C-739.0079699 506.69128974 -752.94104979 528.27831693 -765.890625 550.203125 C-766.41108398 551.07710937 -766.93154297 551.95109375 -767.46777344 552.8515625 C-792.80432906 595.4438149 -814.72028105 639.69701169 -832.953125 685.765625 C-833.21952789 686.43741791 -833.48593079 687.10921082 -833.76040649 687.80136108 C-837.01983557 696.0503795 -839.9770335 704.34935903 -842.73339844 712.77929688 C-844.00956818 716.55503622 -845.45602136 720.22865723 -846.97021484 723.91357422 C-848.53713733 727.81134587 -849.87712224 731.78057598 -851.203125 735.765625 C-851.64760986 737.09932129 -851.64760986 737.09932129 -852.10107422 738.45996094 C-855.12379233 747.67949018 -857.71194087 757.01105986 -860.2734375 766.3671875 C-861.38184493 770.40892989 -862.55507052 774.41973026 -863.80053711 778.42089844 C-867.68640715 790.98044197 -870.2796578 803.88944142 -873.11230469 816.71728516 C-874.05796776 820.952598 -875.06010174 825.17228513 -876.078125 829.390625 C-882.69922611 857.39688417 -887.0395342 886.06343133 -890.04125977 914.67626953 C-890.14237061 915.63903809 -890.24348145 916.60180664 -890.34765625 917.59375 C-890.42991455 918.41907227 -890.51217285 919.24439453 -890.59692383 920.09472656 C-890.890625 922.203125 -890.890625 922.203125 -891.890625 925.203125 C-896.39688347 957.67554691 -896.20272241 990.99614743 -896.08624268 1023.70184326 C-896.07533915 1027.56521524 -896.07577732 1031.42855216 -896.07638073 1035.29193687 C-896.07610595 1039.09118605 -896.0705787 1042.89041347 -896.06337929 1046.6896553 C-896.06026082 1048.46500104 -896.05824179 1050.24034916 -896.05748558 1052.01569748 C-896.04298296 1068.21613488 -895.47548884 1084.3828307 -893.98046875 1100.51953125 C-893.8489315 1101.96761169 -893.8489315 1101.96761169 -893.71473694 1103.44494629 C-893.42733374 1106.55267438 -893.12972528 1109.65924381 -892.828125 1112.765625 C-892.72346924 1113.84963593 -892.61881348 1114.93364685 -892.51098633 1116.05050659 C-890.03860074 1141.26943524 -886.2075423 1166.24047023 -881.890625 1191.203125 C-881.76151733 1191.95120422 -881.63240967 1192.69928345 -881.49938965 1193.47003174 C-878.82425115 1208.88861504 -875.3716169 1224.0755861 -871.609375 1239.26171875 C-870.92040139 1242.08126836 -870.25876414 1244.90547356 -869.609375 1247.734375 C-867.07463838 1258.75220506 -864.1100323 1269.557324 -860.75537109 1280.3527832 C-859.90479627 1283.15641421 -859.09427524 1285.97021965 -858.28598022 1288.78627014 C-854.95891623 1300.31259504 -851.1420491 1311.66412573 -847.265625 1323.015625 C-846.91202911 1324.05214203 -846.55843323 1325.08865906 -846.19412231 1326.15658569 C-833.40766901 1363.55813998 -817.91036241 1399.6217317 -800.43945312 1435.05859375 C-799.03280335 1437.91446529 -797.63944693 1440.77635805 -796.25 1443.640625 C-789.98812096 1456.46357698 -783.01959897 1468.84556073 -775.890625 1481.203125 C-775.3229541 1482.19393066 -774.7552832 1483.18473633 -774.17041016 1484.20556641 C-765.80650309 1498.80047794 -757.07388256 1513.10929574 -747.890625 1527.203125 C-747.44267578 1527.89164551 -746.99472656 1528.58016602 -746.53320312 1529.28955078 C-731.71848224 1551.97964786 -715.86721125 1574.08007609 -698.890625 1595.203125 C-698.3764502 1595.8434668 -697.86227539 1596.48380859 -697.33251953 1597.14355469 C-690.42840078 1605.72548422 -683.42457433 1614.21574975 -676.26757812 1622.58789062 C-674.84941154 1624.25147043 -673.43987183 1625.92208376 -672.03125 1627.59375 C-665.23795149 1635.62651166 -658.17050293 1643.35804566 -650.94628906 1651.00390625 C-648.88791987 1653.20601904 -646.85390716 1655.42947189 -644.82037354 1657.65449524 C-638.34685448 1664.72223906 -631.67826551 1671.57062639 -624.88916016 1678.33496094 C-623.12413956 1680.0945598 -621.36461367 1681.85952897 -619.60546875 1683.625 C-614.37733103 1688.85584192 -609.16064133 1694.03656611 -603.49829102 1698.80371094 C-601.76272073 1700.31446096 -600.17169612 1701.91916761 -598.578125 1703.578125 C-594.92431265 1707.2980697 -590.90655621 1710.48511193 -586.84765625 1713.75 C-583.76410182 1716.30808742 -580.82136087 1718.97380613 -577.890625 1721.703125 C-573.39429154 1725.8771638 -568.7794125 1729.84439359 -564 1733.69140625 C-561.59930635 1735.63066004 -559.21682666 1737.58598755 -556.84375 1739.55859375 C-549.23414701 1745.88095763 -541.59580417 1752.10235633 -533.60644531 1757.94384766 C-531.60827668 1759.41034649 -529.62058301 1760.89053238 -527.6328125 1762.37109375 C-502.24646067 1781.2423877 -476.09705917 1799.04965502 -448.890625 1815.203125 C-448.00793945 1815.72938477 -447.12525391 1816.25564453 -446.21582031 1816.79785156 C-374.44710616 1859.48510526 -297.51937901 1892.40843664 -216.890625 1914.203125 C-215.7351416 1914.51894531 -214.5796582 1914.83476563 -213.38916016 1915.16015625 C-191.40922769 1921.13979375 -169.24216326 1925.84350833 -146.890625 1930.203125 C-145.55517077 1930.46514375 -144.21972129 1930.72718669 -142.88427734 1930.98925781 C-127.9407668 1933.90342968 -113.0052674 1936.37831399 -97.890625 1938.203125 C-96.04355957 1938.43298096 -96.04355957 1938.43298096 -94.15917969 1938.66748047 C-84.23343667 1939.89716008 -74.2964825 1940.9822584 -64.34295654 1941.96166992 C-62.74172368 1942.11932634 -61.1406789 1942.27890821 -59.53985596 1942.44067383 C-30.89637518 1945.31850704 -2.27391599 1945.47129402 26.484375 1945.453125 C27.40592377 1945.45285812 28.32747253 1945.45259125 29.27694702 1945.45231628 C56.39710239 1945.43989986 83.34710906 1945.09805998 110.359375 1942.453125 C111.69319214 1942.32490356 111.69319214 1942.32490356 113.05395508 1942.1940918 C129.86344607 1940.56755923 146.55365609 1938.36159002 163.24267578 1935.79248047 C166.85049155 1935.24258356 170.46092475 1934.71949987 174.07421875 1934.20703125 C188.6956638 1932.10209984 203.08887362 1929.25102395 217.49951172 1926.01025391 C220.07234718 1925.43499393 222.64605505 1924.86938042 225.22314453 1924.31396484 C235.99114457 1921.98086552 246.65920258 1919.33846892 257.31298828 1916.53125 C259.97426703 1915.83078548 262.63739732 1915.13772377 265.30078125 1914.4453125 C285.01352764 1909.2928248 304.38617747 1903.2686883 323.671875 1896.703125 C324.6872937 1896.35785767 325.7027124 1896.01259033 326.74890137 1895.65686035 C363.95558351 1882.96493601 399.81198914 1867.49878934 435.109375 1850.203125 C436.18074707 1849.68105469 437.25211914 1849.15898438 438.35595703 1848.62109375 C453.93190832 1841.01697677 469.13322301 1832.92788394 484.109375 1824.203125 C485.50929688 1823.39077393 485.50929688 1823.39077393 486.9375 1822.56201172 C525.00758235 1800.43114721 561.76980365 1775.80182522 596.109375 1748.203125 C596.7497168 1747.6889502 597.39005859 1747.17477539 598.04980469 1746.64501953 C606.63173422 1739.74090078 615.12199975 1732.73707433 623.49414062 1725.58007812 C625.15772043 1724.16191154 626.82833376 1722.75237183 628.5 1721.34375 C636.5334574 1714.54986311 644.26580277 1707.48191369 651.91210938 1700.25683594 C654.10484698 1698.20735719 656.31926839 1696.18267792 658.53523254 1694.15838623 C665.76141168 1687.5418771 672.75305453 1680.71413364 679.66845703 1673.77441406 C681.50048495 1671.9369674 683.33788105 1670.1050085 685.17578125 1668.2734375 C690.48292043 1662.96929569 695.73444432 1657.67388703 700.60107422 1651.95654297 C703.28677351 1648.83438494 706.15187067 1645.87901052 708.984375 1642.890625 C713.90431273 1637.6636384 718.56312182 1632.34449638 723.04296875 1626.734375 C725.11050282 1624.20174347 727.27050841 1621.7958134 729.484375 1619.390625 C734.00269962 1614.42594942 738.11499436 1609.20225103 742.2265625 1603.90234375 C744.63179109 1600.80276321 747.08072097 1597.74136897 749.54541016 1594.68896484 C756.27661028 1586.3466547 762.75262996 1577.83345038 769.109375 1569.203125 C769.62612793 1568.50348633 770.14288086 1567.80384766 770.67529297 1567.08300781 C788.12709527 1543.3949659 804.29286776 1518.62415126 819.109375 1493.203125 C819.5439502 1492.45869141 819.97852539 1491.71425781 820.42626953 1490.94726562 C848.87359979 1442.05619576 872.91826542 1391.40702536 892.109375 1338.203125 C892.56437378 1336.94610779 892.56437378 1336.94610779 893.02856445 1335.66369629 C903.27658014 1307.37963382 903.27658014 1307.37963382 911.53564453 1278.46923828 C912.48637962 1274.71403698 913.55479152 1270.99269844 914.609375 1267.265625 C921.78366988 1241.52290602 927.55528548 1215.75645712 932.234375 1189.453125 C932.40459167 1188.49662048 932.57480835 1187.54011597 932.75018311 1186.55462646 C942.30573177 1132.68359017 946.72948647 1078.79205762 946.55600357 1024.07571793 C946.54670376 1020.95822095 946.54233194 1017.84074438 946.53866577 1014.72323608 C946.4895416 984.72724499 945.95439152 954.99179703 942.109375 925.203125 C941.89859198 923.52492382 941.68798198 921.8467009 941.47753906 920.16845703 C940.4047664 911.71393443 939.23086403 903.27833137 937.95326233 894.85241699 C937.21949195 890.00291622 936.56752742 885.14722497 935.94848633 880.28198242 C924.72778283 792.88328469 895.70496005 705.72356484 852.83251953 617.69628906 C851.14389706 614.27310822 849.46807372 610.84387351 847.79296875 607.4140625 C840.73388343 593.03965988 833.19639357 579.02386574 825.109375 565.203125 C824.45904297 564.08518555 823.80871094 562.96724609 823.13867188 561.81542969 C811.24857008 541.41123359 798.41353274 521.70981411 785.109375 502.203125 C784.42327148 501.19475586 783.73716797 500.18638672 783.03027344 499.14746094 C774.16408216 486.16134405 764.74747122 473.62441478 755.109375 461.203125 C754.57119141 460.50896484 754.03300781 459.81480469 753.47851562 459.09960938 C741.86625105 444.15238654 729.88407942 429.47899636 717.15625 415.46484375 C715.2842781 413.39638625 713.4407411 411.30751586 711.609375 409.203125 C698.9370721 394.69175773 685.71164873 380.71989847 672.109375 367.078125 C671.23764648 366.2018042 670.36591797 365.3254834 669.46777344 364.42260742 C665.05893064 360.02433435 660.59522721 355.76327913 655.84960938 351.72900391 C654.020539 350.12523148 652.31213455 348.43973106 650.609375 346.703125 C647.62065163 343.66717575 644.49231021 340.85803841 641.265625 338.078125 C638.90974542 336.02953406 636.6043004 333.93109498 634.296875 331.828125 C629.98027787 327.9326593 625.5353637 324.23454282 621.015625 320.578125 C618.45642912 318.48673912 615.9334597 316.36245136 613.42114258 314.21557617 C606.14306777 307.99863658 598.68429857 302.05315419 591.109375 296.203125 C590.33029785 295.59807129 589.5512207 294.99301758 588.74853516 294.36962891 C577.87727569 285.93615428 566.86620526 277.83298944 555.453125 270.1484375 C551.63484431 267.57575447 547.89540094 264.91024677 544.171875 262.203125 C521.5999195 245.92247363 497.39796208 231.74240101 473.109375 218.203125 C472.20735352 217.69990723 471.30533203 217.19668945 470.37597656 216.67822266 C422.88263503 190.30503878 373.40228682 169.00500607 322.08843994 151.28056335 C318.62750282 150.08428993 315.17349998 148.87163478 311.72753906 147.6328125 C303.83727515 144.80079348 295.98632304 142.16544144 287.859375 140.078125 C282.19187936 138.59780898 276.57124082 137.0526065 270.984375 135.2890625 C263.18424249 132.86655439 255.2927306 130.87984366 247.359375 128.953125 C246.57190887 128.7612561 245.78444275 128.56938721 244.97311401 128.3717041 C220.19104484 122.36456637 195.12321132 117.63795385 169.984375 113.390625 C168.90422119 113.20790039 167.82406738 113.02517578 166.71118164 112.83691406 C88.22203551 100.01703994 5.10712153 97.8454382 -73.890625 107.203125 Z " fill="#FEFEFE" transform="translate(998.890625,-0.203125)"/>
<path d="M0 0 C1.20398438 0.35707031 2.40796875 0.71414063 3.6484375 1.08203125 C47.65969909 14.87591722 82.97298965 44.59315203 104.625 85.125 C112.8603718 100.96258553 118.86285224 117.64800639 123 135 C123.18014648 135.75506836 123.36029297 136.51013672 123.54589844 137.28808594 C131.72485985 172.5626302 132.2768287 209.262691 127 245 C126.84966309 246.05348633 126.69932617 247.10697266 126.54443359 248.19238281 C119.77090721 293.70091419 99.53510071 339.57455498 62.4375 368.375 C61.83599121 368.84268799 61.23448242 369.31037598 60.61474609 369.79223633 C42.26976134 383.85290575 21.77415491 393.54849359 -0.3125 400.25 C-1.12428711 400.49637207 -1.93607422 400.74274414 -2.77246094 400.99658203 C-34.23870127 410.24722197 -75.03110895 411.22494549 -107 404 C-108.02254883 403.76893555 -109.04509766 403.53787109 -110.09863281 403.29980469 C-124.65133156 399.89202987 -138.52362427 395.48059746 -152 389 C-152.67063477 388.67918457 -153.34126953 388.35836914 -154.03222656 388.02783203 C-168.77868866 380.85141486 -181.24320148 371.3558163 -193 360 C-193.91394531 359.14921875 -194.82789063 358.2984375 -195.76953125 357.421875 C-232.08651985 322.71551107 -249.79743776 268.24848631 -251.1262207 218.9987793 C-252.43755873 155.03335928 -241.51575845 91.53210695 -195.96948242 43.57104492 C-175.35502068 22.48827225 -148.509309 6.61243329 -120 -1 C-118.61554688 -1.39445313 -118.61554688 -1.39445313 -117.203125 -1.796875 C-111.0306174 -3.46788534 -104.80708696 -4.6090725 -98.5 -5.625 C-97.74122559 -5.74818604 -96.98245117 -5.87137207 -96.20068359 -5.99829102 C-65.02063796 -10.79904927 -30.27492214 -9.36086673 0 0 Z " fill="#FEFEFE" transform="translate(574,831)"/>
<path d="M0 0 C2.78945621 0.02152887 5.57633963 -0.00008127 8.36572266 -0.02539062 C19.89380201 -0.03610637 31.14031549 1.00924007 42.54736328 2.5546875 C43.98510395 2.74546155 45.42290891 2.93575169 46.86077881 3.12554932 C50.3358396 3.58530321 53.80999293 4.05153463 57.28369141 4.52148438 C57.28607976 5.71233202 57.28846811 6.90317966 57.29092884 8.1301136 C57.3484681 36.49042126 57.42132448 64.85066192 57.51267769 93.21088064 C57.52394391 96.71252685 57.53508267 100.21417345 57.54614258 103.71582031 C57.54834626 104.41284395 57.55054995 105.1098676 57.55282041 105.82801317 C57.58805382 117.06812854 57.61299634 128.30824386 57.63403843 139.54839374 C57.65591237 151.10857146 57.689288 162.66867489 57.73239297 174.22879303 C57.75620658 180.71066743 57.77501275 187.1924642 57.78130531 193.67438126 C57.78741025 199.79260363 57.80760224 205.91062764 57.83796692 212.02877617 C57.84666135 214.25775073 57.8504879 216.48675131 57.84869957 218.71574211 C57.83886683 236.64858202 58.36315196 255.40394147 64.28369141 272.52148438 C64.58315674 273.42906494 64.58315674 273.42906494 64.88867188 274.35498047 C70.41763167 290.98201208 78.55421294 303.11940271 94.28369141 311.52148438 C94.96947266 311.90304687 95.65525391 312.28460937 96.36181641 312.67773438 C103.51442249 316.28133744 111.45232933 317.2795411 119.28369141 318.52148438 C120.33427734 318.70839844 121.38486328 318.8953125 122.46728516 319.08789062 C140.11079381 321.09242436 158.13662598 319.5912282 175.61669922 316.91040039 C179.16485018 316.39298878 182.725702 315.96623305 186.28369141 315.52148438 C186.28369141 212.89148437 186.28369141 110.26148438 186.28369141 4.52148438 C204.41422406 2.04913901 221.08442488 0.31457079 239.15869141 0.33398438 C240.45261307 0.33389374 240.45261307 0.33389374 241.77267456 0.33380127 C259.9343334 0.35191218 277.27430961 1.94871555 295.28369141 4.52148438 C295.28369141 130.58148437 295.28369141 256.64148437 295.28369141 386.52148438 C264.85390885 395.21570796 234.5010696 403.37956644 203.01074219 407.18164062 C201.13719031 407.41512175 199.26576064 407.66609149 197.39648438 407.93164062 C180.07785414 410.39030468 162.93946048 410.81572243 145.47119141 410.83398438 C144.40334412 410.83747894 143.33549683 410.84097351 142.23529053 410.84457397 C122.03342246 410.88123129 101.97002278 409.63067439 81.97119141 406.70898438 C80.80168945 406.53866699 79.6321875 406.36834961 78.42724609 406.19287109 C68.48859129 404.67571728 58.85963083 402.58560658 49.28369141 399.52148438 C48.25743652 399.19325684 48.25743652 399.19325684 47.21044922 398.85839844 C12.90397354 387.56496235 -13.35440357 365.05093465 -29.77880859 332.83398438 C-38.69937518 314.81891864 -44.6354695 296.15185018 -47.90380859 276.33398438 C-48.05873779 275.40448975 -48.21366699 274.47499512 -48.37329102 273.51733398 C-51.29948067 254.50586231 -52.0100198 235.45096384 -51.94335938 216.24633789 C-51.94279341 213.91785182 -51.94311542 211.58936539 -51.94424438 209.26087952 C-51.94481167 203.01860666 -51.9331599 196.77641271 -51.91909647 190.53415799 C-51.90648363 183.98126721 -51.90541038 177.42837407 -51.90304565 170.87547302 C-51.89789436 159.90240127 -51.88512062 148.92935674 -51.8671875 137.95629883 C-51.84875689 126.66691223 -51.83463581 115.37753342 -51.82617188 104.08813477 C-51.82564643 103.38924645 -51.82512098 102.69035813 -51.82457961 101.97029138 C-51.82196905 98.46327521 -51.81944175 94.95625898 -51.8169558 91.44924271 C-51.79630901 62.47330481 -51.7610082 33.49739497 -51.71630859 4.52148438 C-47.52606583 3.95459478 -43.33492312 3.39502919 -39.14287567 2.84168243 C-37.72256578 2.65322127 -36.30250105 2.46290136 -34.88271332 2.27054596 C-23.23973455 0.69512054 -11.75602188 -0.1066678 0 0 Z " fill="#FEFEFE" transform="translate(1186.71630859375,828.478515625)"/>
<path d="M0 0 C0.68513672 0.15549316 1.37027344 0.31098633 2.07617188 0.47119141 C13.78405507 3.15657097 25.15150858 7.2508284 36.5234375 11.07421875 C38.069104 11.59375122 38.069104 11.59375122 39.64599609 12.1237793 C42 13 42 13 43 14 C45.32417865 40.31872153 33.1409864 69.77822373 22 93 C16.77134255 91.51219958 11.63689411 89.88419461 6.53613281 87.99755859 C-1.59798041 85.01114916 -9.82944744 82.53405402 -18.1875 80.25 C-19.24324219 79.95641602 -20.29898438 79.66283203 -21.38671875 79.36035156 C-34.38070337 75.88269169 -47.10773409 74.62655802 -60.50317383 74.62939453 C-62.80039842 74.62502303 -65.09569062 74.58854368 -67.39257812 74.55078125 C-82.47516381 74.43643078 -99.59724193 76.31396759 -111.15234375 86.98828125 C-118.42503265 94.88561827 -118.53088146 102.00140496 -118.30859375 112.3046875 C-117.96628783 119.47180652 -116.26055841 125.1952336 -111 130.25 C-96.67919658 141.0057089 -77.47810432 145.28474056 -60.56591797 150.24560547 C-53.80451128 152.23349764 -47.0571948 154.26883864 -40.31054688 156.30615234 C-38.17291551 156.94807419 -36.03226426 157.57864295 -33.890625 158.20703125 C-2.27917031 167.60620194 28.05856552 182.18965199 45.04931641 211.83056641 C60.23579853 240.22401437 62.52607176 276.21607752 54 307 C43.47532618 341.12443793 19.88630906 366.98866279 -11.1171875 384.01953125 C-17.74327163 387.50282928 -24.7138426 390.28615844 -31.66015625 393.05908203 C-33.25738879 393.70137483 -34.84838627 394.35933857 -36.43359375 395.03076172 C-42.36094129 397.50708097 -48.23774905 399.21899979 -54.5 400.625 C-55.37269531 400.82867188 -56.24539063 401.03234375 -57.14453125 401.2421875 C-115.90390028 414.82213057 -180.28396654 406.94402435 -236 385 C-236.48979667 376.43762851 -235.23226689 368.42766215 -233.44433594 360.08398438 C-233.02050724 358.09618122 -232.62285578 356.1028503 -232.2265625 354.109375 C-228.50762224 336.25757735 -222.36782291 318.21060594 -214 302 C-212.75605469 302.41507813 -211.51210938 302.83015625 -210.23046875 303.2578125 C-209.40466309 303.53270508 -208.57885742 303.80759766 -207.72802734 304.09082031 C-205.90738835 304.69759136 -204.08740068 305.3063202 -202.26806641 305.91699219 C-162.65060618 319.16137934 -114.2304442 330.47716019 -74 313 C-69.81484703 310.90742352 -65.88230835 308.60970879 -62 306 C-60.96746094 305.30970703 -60.96746094 305.30970703 -59.9140625 304.60546875 C-53.93083615 300.07232564 -49.2606811 292.43660201 -48 285 C-47.39821019 274.54565138 -47.63429371 264.92370872 -53.9296875 256.1953125 C-65.52206524 243.90301761 -85.92413376 238.56672998 -101.85546875 234.765625 C-103.53639276 234.356356 -105.21721599 233.94667286 -106.89794922 233.53662109 C-107.76256775 233.32672546 -108.62718628 233.11682983 -109.51800537 232.90057373 C-141.70434883 225.05654613 -174.60454752 216.44442609 -200 194 C-200.71542969 193.42765625 -201.43085937 192.8553125 -202.16796875 192.265625 C-218.26891203 179.18555502 -226.62189665 157.18994787 -229 137 C-229.32158379 131.78798168 -229.32995831 126.57101366 -229.31567383 121.35083008 C-229.31253726 118.96583256 -229.33596531 116.58210868 -229.36132812 114.19726562 C-229.47655887 86.304055 -221.68642122 61.7235391 -204 40 C-203.3915625 39.24976563 -202.783125 38.49953125 -202.15625 37.7265625 C-177.54118766 8.52414763 -137.52592769 -3.69009329 -100.83203125 -7.49609375 C-67.28217549 -10.33573671 -32.72237966 -7.7102266 0 0 Z " fill="#FEFEFE" transform="translate(1005,832)"/>
<path d="M0 0 C2.30552433 2.95003786 4.22399315 5.98545286 6.08203125 9.234375 C6.67693359 10.27078125 7.27183594 11.3071875 7.88476562 12.375 C8.52091797 13.48875 9.15707031 14.6025 9.8125 15.75 C11.1719515 18.12049585 12.53331061 20.48989473 13.89453125 22.859375 C14.23936554 23.46019897 14.58419983 24.06102295 14.93948364 24.68005371 C18.26447175 30.47006031 21.62886337 36.23675498 25 42 C31.74927003 53.54976691 38.43635214 65.13486289 45.11328125 76.7265625 C46.9796838 79.9647516 48.84873763 83.20139438 50.71875 86.4375 C56.85509454 97.05877862 62.97162963 107.69072963 69.04815674 118.34631348 C74.90612835 128.61847237 80.81289848 138.86029113 86.78369141 149.06738281 C92.93792989 159.59111319 99.02379087 170.1539592 105.10888672 180.71777344 C108.23680147 186.1465994 111.36856046 191.57320669 114.5 197 C118.00644483 203.07716164 121.51274701 209.15440473 125.01696777 215.23284912 C126.02619104 216.98341241 127.03553836 218.73390411 128.04492188 220.484375 C129.3016766 222.66392165 130.55820586 224.84359832 131.81445312 227.0234375 C132.39130859 228.02375 132.96816406 229.0240625 133.5625 230.0546875 C134.12195312 231.02631836 134.68140625 231.99794922 135.2578125 232.99902344 C136.4911778 235.12353665 137.73725904 237.24069131 138.9921875 239.35253906 C139.95511719 240.97627441 139.95511719 240.97627441 140.9375 242.6328125 C141.52402344 243.6139502 142.11054687 244.59508789 142.71484375 245.60595703 C144 248 144 248 144 250 C144.66 250.33 145.32 250.66 146 251 C138.40029502 257.15838162 130.76159728 263.25304604 122.9375 269.125 C122.35097656 269.56618164 121.76445313 270.00736328 121.16015625 270.46191406 C119.92368636 271.38462309 118.6727791 272.28823238 117.40973091 273.1742115 C114.89094644 275.01085865 114.89094644 275.01085865 112.42155266 277.46133232 C101.37971271 287.43833814 89.34176158 286.31410295 75.17626953 286.04345703 C72.57326986 286.03075788 69.97024532 286.02250031 67.36721802 286.01832581 C61.78687555 286.00243083 56.20786315 285.95006456 50.62805557 285.87210464 C42.56105289 285.75944814 34.49440667 285.7030689 26.42676829 285.65991746 C13.33433019 285.58838408 0.24269546 285.47206174 -12.84912109 285.32714844 C-25.55798364 285.18657093 -38.26675427 285.06735153 -50.97607422 284.9765625 C-51.76096292 284.97094827 -52.54585163 284.96533404 -53.35452484 284.95954968 C-57.29252837 284.93151234 -61.2305347 284.90389181 -65.16854262 284.87647843 C-97.77973428 284.64892624 -130.38987306 284.34850778 -163 284 C-161.73617103 280.0940648 -160.40780806 276.67793544 -158.3046875 273.1484375 C-157.76199219 272.22933594 -157.21929688 271.31023437 -156.66015625 270.36328125 C-155.77650391 268.88408203 -155.77650391 268.88408203 -154.875 267.375 C-153.60034343 265.21686539 -152.3269566 263.05798044 -151.0546875 260.8984375 C-150.38920898 259.77018555 -149.72373047 258.64193359 -149.03808594 257.47949219 C-145.97813757 252.27095257 -142.99368379 247.01929386 -140.00640869 241.76885986 C-134.16436147 231.5009012 -128.2585786 221.27264109 -122.2890625 211.078125 C-117.80833735 203.41426026 -113.39505776 195.71314165 -109 188 C-103.4593297 178.27733187 -97.86396578 168.58860003 -92.21435547 158.92871094 C-82.36906414 142.09005992 -72.65976224 125.17325115 -62.99130249 108.23260498 C-55.09088366 94.39090856 -47.12007932 80.59008987 -39.14550781 66.79101562 C-37.28397329 63.56931727 -35.4230475 60.34726845 -33.5625 57.125 C-32.64464722 55.53570679 -32.64464722 55.53570679 -31.70825195 53.91430664 C-28.39636515 48.1737894 -25.09746172 42.42614594 -21.81640625 36.66796875 C-21.29389786 35.75099968 -21.29389786 35.75099968 -20.76083374 34.81550598 C-20.41372345 34.20631821 -20.06661316 33.59713043 -19.70898438 32.96948242 C-2.14508521 2.14508521 -2.14508521 2.14508521 0 0 Z " fill="#F170AA" transform="translate(1454,1493)"/>
<path d="M0 0 C1.62000412 -0.00542313 1.62000412 -0.00542313 3.2727356 -0.01095581 C46.79864287 -0.06942856 46.79864287 -0.06942856 57.5625 5.3125 C57.6430128 32.29646465 57.48527842 59.26352686 56.98964429 86.24295902 C56.90624832 90.82035637 56.82686232 95.39782393 56.74681091 99.97528076 C56.61243048 107.62517135 56.47504589 115.27500316 56.33569336 122.92480469 C56.17596565 131.69510172 56.02112969 140.4654751 55.86882645 149.23590398 C55.71996283 157.80189903 55.56769912 166.36783054 55.41392326 174.93373871 C55.34948024 178.52637716 55.28615702 182.11903252 55.22381783 185.71170807 C54.66479728 217.80862295 54.66479728 217.80862295 53.91598606 233.28662205 C53.43924556 243.33519129 53.27737319 253.38737101 53.11694336 263.44521141 C53.06066014 266.97071522 53.00047442 270.49613585 52.93945312 274.02156067 C52.81044593 281.51431909 52.68622888 289.00715284 52.5625 296.5 C52.3991198 306.36854694 52.23343742 316.23704959 52.0625 326.10546875 C52.04220734 327.28100185 52.02191467 328.45653496 52.00100708 329.66769028 C51.70584729 346.55748943 51.32312845 363.43636199 50.5625 380.3125 C32.75204607 383.02564927 15.21363397 384.71927306 -2.8125 384.6875 C-3.60568634 384.6889502 -4.39887268 384.69040039 -5.21609497 384.69189453 C-21.17341794 384.68858521 -36.72242624 383.03058851 -52.4375 380.3125 C-53.70497961 350.37821903 -54.6439701 320.45084038 -55.21875 290.49609375 C-55.23363543 289.72153092 -55.24852086 288.94696808 -55.26385736 288.14893365 C-55.44862287 278.50330066 -55.62592392 268.85753601 -55.80110872 259.21172494 C-56.07773983 244.0091418 -56.37060094 228.80685743 -56.66299295 213.60457063 C-56.71079705 211.11668461 -56.75842496 208.62879528 -56.80602646 206.14090538 C-57.28919223 180.92427384 -57.85637558 155.7114787 -58.5625 130.5 C-59.21168699 107.20974352 -59.71742862 83.92182276 -60.0625 60.625 C-60.07294594 59.9324902 -60.08339188 59.23998039 -60.09415436 58.52648544 C-60.36670771 40.45416603 -60.4939412 22.38685356 -60.4375 4.3125 C-57.66947786 3.95683235 -54.90145136 3.60119954 -52.13339233 3.24581909 C-50.02597908 2.9747949 -47.91880301 2.70192454 -45.81176758 2.42797852 C-30.52630755 0.4919684 -15.391664 0.03949907 0 0 Z " fill="#FEFEFE" transform="translate(1642.4375,673.6875)"/>
<path d="M0 0 C1.82712524 0.00749268 1.82712524 0.00749268 3.69116211 0.01513672 C22.51407884 0.37613439 38.86824799 5.99076755 52.453125 19.38671875 C63.44378476 30.90337059 69.20007962 45.94293179 73.5 61 C73.8571106 62.21526367 73.8571106 62.21526367 74.22143555 63.45507812 C79.24467497 82.03384517 79.82363993 101.06437714 79.6875 120.1875 C79.68351196 121.32554077 79.67952393 122.46358154 79.67541504 123.6361084 C79.58392897 145.90319231 79.02308196 168.07601367 72.3125 189.5 C71.98958984 190.53858154 71.98958984 190.53858154 71.66015625 191.59814453 C67.08303226 206.07620834 61.27990227 218.68545351 50.3125 229.5 C49.67570313 230.14710938 49.03890625 230.79421875 48.3828125 231.4609375 C40.90772109 238.56382519 31.18553502 242.81865416 21.3125 245.5 C20.61640625 245.70496094 19.9203125 245.90992188 19.203125 246.12109375 C-0.70044197 251.09698549 -23.48758789 247.23641986 -41.0625 237.17578125 C-59.54065315 225.37946027 -69.83798344 202.2663227 -74.6875 181.5 C-77.70483838 166.99434962 -79.80563058 152.58093035 -79.92578125 137.75390625 C-79.93552979 136.75291397 -79.94527832 135.75192169 -79.95532227 134.72059631 C-80.27821004 93.01136678 -80.27821004 93.01136678 -75.6875 72.5 C-75.49494629 71.61344727 -75.30239258 70.72689453 -75.10400391 69.81347656 C-69.90072674 46.50522913 -60.81803089 24.24686572 -40.5 10.25 C-27.95747245 2.44576064 -14.63686044 -0.07959807 0 0 Z " fill="#E866A0" transform="translate(512.6875,908.5)"/>
<path d="M0 0 C3.77016416 1.25672139 4.00711403 2.29562331 5.86328125 5.72265625 C6.41290527 6.72337158 6.9625293 7.72408691 7.52880859 8.75512695 C8.41173584 10.39227661 8.41173584 10.39227661 9.3125 12.0625 C10.58016929 14.37084501 11.84955933 16.67816492 13.12109375 18.984375 C13.44482971 19.57358231 13.76856567 20.16278961 14.10211182 20.76985168 C17.26182081 26.5089461 20.55412872 32.16563771 23.875 37.8125 C28.97687419 46.50791196 34.00994731 55.24015058 39 64 C44.53953103 73.72142984 50.13375187 83.40895304 55.78344727 93.06689453 C61.93766742 103.59084625 68.02369996 114.15380137 74.10888672 124.71777344 C77.23680148 130.14659942 80.36858448 135.57319281 83.5 141 C84.75001879 143.16665583 86.00001878 145.3333225 87.25 147.5 C87.86875 148.5725 88.4875 149.645 89.125 150.75 C91 154 92.875 157.25 94.75 160.5 C95.36963623 161.57403076 95.98927246 162.64806152 96.62768555 163.75463867 C97.86875254 165.90583224 99.10980093 168.05703655 100.35083008 170.20825195 C103.26498344 175.25962999 106.17931818 180.3109031 109.09432983 185.36178589 C110.12673478 187.15066918 111.15907956 188.93958717 112.19140625 190.72851562 C113.48685948 192.97337636 114.7824257 195.2181719 116.078125 197.46289062 C117.2219008 199.44501637 118.36441823 201.42786907 119.50537109 203.41162109 C120.43293112 205.01795749 121.36695074 206.62060459 122.31103516 208.21728516 C125 212.79076325 125 212.79076325 125 215 C43.16 215 -38.68 215 -123 215 C-121.57181199 210.71543596 -120.48701477 207.8089992 -118.26953125 204.078125 C-117.44787476 202.68424561 -117.44787476 202.68424561 -116.60961914 201.26220703 C-116.01656982 200.26817871 -115.42352051 199.27415039 -114.8125 198.25 C-113.53580222 196.08632451 -112.25978329 193.92224834 -110.984375 191.7578125 C-110.32501953 190.64180664 -109.66566406 189.52580078 -108.98632812 188.37597656 C-105.81074644 182.9787367 -102.6862344 177.55236 -99.5625 172.125 C-98.30341652 169.94008624 -97.04430177 167.75519051 -95.78515625 165.5703125 C-95.16012207 164.48524414 -94.53508789 163.40017578 -93.89111328 162.28222656 C-90.76319852 156.85340058 -87.63141552 151.42680719 -84.5 146 C-83.24998121 143.83334417 -81.99998122 141.6666775 -80.75 139.5 C-63.25 109.16666667 -45.75 78.83333333 -28.25 48.5 C-27.63020264 47.42564697 -27.01040527 46.35129395 -26.37182617 45.24438477 C-25.13253733 43.09635954 -23.89311859 40.94840925 -22.65356445 38.80053711 C-19.71797433 33.71344451 -16.78374328 28.62558153 -13.85409546 23.5350647 C-12.46671905 21.12456252 -11.07860376 18.71448624 -9.69042969 16.30444336 C-8.70826185 14.59856032 -7.72716615 12.89206014 -6.74609375 11.18554688 C-6.153125 10.15623047 -5.56015625 9.12691406 -4.94921875 8.06640625 C-4.42674561 7.15834229 -3.90427246 6.25027832 -3.3659668 5.31469727 C-2.30022034 3.50873799 -1.16319248 1.74478871 0 0 Z " fill="#FE7CB6" transform="translate(1023,193)"/>
<path d="M0 0 C2.65565787 2.39969682 4.27998553 4.96444189 6.046875 8.06640625 C6.63662109 9.09572266 7.22636719 10.12503906 7.83398438 11.18554688 C8.46626953 12.29994141 9.09855469 13.41433594 9.75 14.5625 C10.41941347 15.73401461 11.08934426 16.90523376 11.75976562 18.07617188 C13.15239997 20.50943834 14.54279747 22.94396232 15.93164062 25.37939453 C19.10029749 30.93157564 22.30174526 36.4648353 25.5 42 C26.74887228 44.16396188 27.99756957 46.32802476 29.24609375 48.4921875 C29.86468262 49.56436523 30.48327148 50.63654297 31.12060547 51.74121094 C33.00980166 55.01699566 34.89764109 58.29355893 36.78515625 61.5703125 C42.83055159 72.06232094 48.89110219 82.54481676 55 93 C61.74701194 104.54729516 68.43339318 116.12902027 75.10888672 127.71777344 C78.23680146 133.14659938 81.36853731 138.57322007 84.5 144 C88.26363919 150.52233275 92.02644622 157.04513762 95.78515625 163.5703125 C102.0443741 174.43393822 108.31682985 185.28971133 114.625 196.125 C115.1929126 197.10227051 115.7608252 198.07954102 116.34594727 199.08642578 C119.17573424 203.93930495 122.05365296 208.73596201 125.13037109 213.43701172 C126 215 126 215 126 217 C60.99 217.33 -4.02 217.66 -71 218 C-84.80405405 188.09121622 -84.80405405 188.09121622 -89.75 176.375 C-90.27307235 175.14437598 -90.7965121 173.91390806 -91.3203125 172.68359375 C-92.55042734 169.79054589 -93.77707446 166.89609215 -95 164 C-94.34 163.67 -93.68 163.34 -93 163 C-92.29856284 161.34766585 -91.63772109 159.67795532 -91 158 C-90.10624743 156.28065956 -89.18209867 154.57690958 -88.234375 152.88671875 C-87.68152832 151.89889404 -87.12868164 150.91106934 -86.55908203 149.89331055 C-85.96208496 148.83539307 -85.36508789 147.77747559 -84.75 146.6875 C-84.12593262 145.57737549 -83.50186523 144.46725098 -82.85888672 143.32348633 C-78.11549721 134.91269335 -73.27537264 126.56056901 -68.39135742 118.23071289 C-63.89608779 110.55842904 -59.4663109 102.85001331 -55.0625 95.125 C-46.80883228 80.65021935 -38.48282435 66.21777821 -30.14550781 51.79101562 C-28.2839733 48.56931728 -26.4230628 45.34725961 -24.5625 42.125 C-23.95639893 41.07562256 -23.35029785 40.02624512 -22.72583008 38.94506836 C-19.31342895 33.0307488 -15.91622506 27.10804867 -12.53515625 21.17578125 C-11.98037346 20.20279083 -11.98037346 20.20279083 -11.41438293 19.21014404 C-9.61193992 16.04845368 -7.81141459 12.88569543 -6.01391602 9.72119141 C-5.05183228 8.03195557 -5.05183228 8.03195557 -4.0703125 6.30859375 C-3.50070801 5.30626709 -2.93110352 4.30394043 -2.34423828 3.27124023 C-1 1 -1 1 0 0 Z " fill="#F472AC" transform="translate(263,1204)"/>
<path d="M0 0 C0.72218719 -0.00167175 1.44437439 -0.00334351 2.18844604 -0.00506592 C20.25639134 -0.00753715 39.45366514 0.44332137 56.9375 5.25 C71.00937321 33.39374642 62.77209282 85.41744402 57.9375 115.25 C57.4425 116.735 57.4425 116.735 56.9375 118.25 C53.22999477 118.73571334 49.52136466 119.2122879 45.8125 119.6875 C44.78511719 119.82220703 43.75773437 119.95691406 42.69921875 120.09570312 C28.91720611 121.85055567 15.19208403 122.5126618 1.3125 122.5625 C0.10240265 122.56842163 0.10240265 122.56842163 -1.13214111 122.57446289 C-19.28103142 122.61536781 -37.09882138 120.69147593 -55.0625 118.25 C-66.14140969 87.56159156 -64.37379865 36.50585952 -56.0625 5.25 C-52.21030596 4.59204069 -48.35545889 3.95102586 -44.5 3.3125 C-43.43330078 3.13009766 -42.36660156 2.94769531 -41.26757812 2.75976562 C-27.57810059 0.51223946 -13.85196023 0.0172171 0 0 Z " fill="#FEFEFE" transform="translate(1640.0625,1111.75)"/>
<path d="M0 0 C35.97 0 71.94 0 109 0 C112.52187428 17.60937139 112.52187428 17.60937139 113.16796875 23.625 C113.25278 24.41020523 113.33759125 25.19541046 113.42497253 26.00440979 C113.69801931 28.66817802 113.94741442 31.33306153 114.1875 34 C114.27404846 34.9562326 114.36059692 35.91246521 114.44976807 36.89767456 C116.48673311 60.68198542 116.38128827 84.53876853 116.37561417 108.3916626 C116.37500716 111.52551741 116.3775314 114.6593594 116.38021851 117.79321289 C116.39793614 175.02699236 116.39793614 175.02699236 113 196 C110.1544796 192.59166354 107.81788398 189.16533016 105.63671875 185.30078125 C105.00499756 184.18751465 104.37327637 183.07424805 103.72241211 181.92724609 C103.39127411 181.33901062 103.06013611 180.75077515 102.71896362 180.14471436 C101.30504564 177.63313685 99.8814735 175.12707484 98.45863342 172.62054443 C97.72272457 171.32383464 96.98732624 170.02683499 96.25242615 168.72955322 C92.68042145 162.42563732 89.06366865 156.14790189 85.4375 149.875 C84.82350342 148.81192627 84.20950684 147.74885254 83.5769043 146.65356445 C82.33776657 144.5081844 81.0984281 142.36292029 79.85888672 140.21777344 C76.73675393 134.81329351 73.61863474 129.40649893 70.5 124 C69.88189453 122.92878906 69.26378906 121.85757812 68.62695312 120.75390625 C65.48777626 115.31353925 62.35000371 109.87237045 59.21484375 104.4296875 C53.19252671 93.97793801 47.15330663 83.53700452 41.0625 73.125 C35.64451349 63.86137165 30.30468872 54.55480363 24.99185181 45.23068237 C19.02626673 34.76330933 12.97810515 24.34622511 6.890625 13.94921875 C6.39369141 13.09763184 5.89675781 12.24604492 5.38476562 11.36865234 C4.50320764 9.86074056 3.61698824 8.35553725 2.72460938 6.85400391 C0 2.21954356 0 2.21954356 0 0 Z " fill="#DE5C96" transform="translate(1829,910)"/>
<path d="M0 0 C0.66 0 1.32 0 2 0 C2.60920288 1.06806885 2.60920288 1.06806885 3.23071289 2.15771484 C15.96818856 24.48355517 28.76595904 46.77284158 41.7331543 68.96630859 C49.17449495 81.71006139 56.53019894 94.50323051 63.89550781 107.29101562 C71.13443248 119.85740058 78.39443713 132.41054914 85.71313477 144.93066406 C88.82330213 150.25533401 91.92101355 155.58692524 95 160.9296875 C95.33491455 161.51083313 95.6698291 162.09197876 96.01489258 162.69073486 C97.62873886 165.49211183 99.24096889 168.29440788 100.8515625 171.09765625 C101.43679688 172.11472656 102.02203125 173.13179687 102.625 174.1796875 C103.18445313 175.15389648 103.74390625 176.12810547 104.3203125 177.13183594 C106.47913898 180.81815767 108.74080182 184.43760796 111.03125 188.04345703 C111.3509375 188.68911621 111.670625 189.33477539 112 190 C111.67 190.66 111.34 191.32 111 192 C96.40310541 183.46584308 82.25531589 174.31020654 68.1875 164.9375 C67.37231903 164.39595276 66.55713806 163.85440552 65.71725464 163.29644775 C49.78003625 152.69778428 34.23152612 141.59010936 19 130 C18.47599609 129.60216309 17.95199219 129.20432617 17.41210938 128.79443359 C9.81023882 123.01638074 2.3634726 117.08052496 -5 111 C-6.77075782 109.56240698 -8.54159226 108.12490833 -10.3125 106.6875 C-22.23038585 96.92877464 -34.17613512 86.97350356 -45 76 C-44.34 76 -43.68 76 -43 76 C-42.72994141 75.28553711 -42.45988281 74.57107422 -42.18164062 73.83496094 C-40.988065 70.97136586 -39.61173477 68.34531107 -38.09375 65.640625 C-37.52027832 64.61670654 -36.94680664 63.59278809 -36.35595703 62.5378418 C-35.74349121 61.452854 -35.13102539 60.36786621 -34.5 59.25 C-33.54843018 57.55774292 -33.54843018 57.55774292 -32.57763672 55.83129883 C-28.78482648 49.10532441 -24.93802832 42.41643851 -20.99047852 35.78027344 C-18.23532493 31.13611241 -15.53823848 26.46027624 -12.86328125 21.76953125 C-12.49966492 21.13190353 -12.13604858 20.49427582 -11.76141357 19.83732605 C-9.92747973 16.61930119 -8.09653873 13.39959762 -6.26806641 10.1784668 C-5.59409135 8.99396886 -4.92010116 7.80947953 -4.24609375 6.625 C-3.64466553 5.56539062 -3.0432373 4.50578125 -2.42358398 3.4140625 C-1 1 -1 1 0 0 Z " fill="#FC7BB5" transform="translate(447,1628)"/>
<path d="M0 0 C4.00718842 4.49744816 6.4829125 9.51635478 9.1484375 14.86328125 C9.63770218 15.83480133 10.12696686 16.80632141 10.63105774 17.80728149 C12.22034159 20.9717718 13.79886184 24.14144348 15.375 27.3125 C15.91500641 28.39588654 16.45501282 29.47927307 17.01138306 30.5954895 C49.43350245 95.7340098 49.43350245 95.7340098 56 122 C14.75 122 -26.5 122 -69 122 C-67.45460244 118.13650609 -65.88793449 114.87579302 -63.83203125 111.30078125 C-63.19386475 110.18751465 -62.55569824 109.07424805 -61.89819336 107.92724609 C-61.20304466 106.72228318 -60.5078113 105.5173691 -59.8125 104.3125 C-59.09031382 103.05565201 -58.3683941 101.79865088 -57.64672852 100.54150391 C-55.79256933 97.31362852 -53.93436047 94.08810651 -52.07458496 90.86346436 C-50.42607817 88.00474796 -48.77968312 85.14481546 -47.1328125 82.28515625 C-44.04520824 76.92721891 -40.95279067 71.57207499 -37.85888672 66.21777344 C-34.11744555 59.7412572 -30.38102342 53.26184311 -26.64453125 46.7824707 C-23.75184352 41.76698469 -20.85770153 36.75236046 -17.95724487 31.74136353 C-16.93982294 29.98341931 -15.92295539 28.22515558 -14.90625 26.46679688 C-13.6378119 24.27345599 -12.36835898 22.08070153 -11.09765625 19.88867188 C-7.29651071 13.31269009 -3.60438742 6.6858628 0 0 Z " fill="#FE7DB6" transform="translate(1833,583)"/>
<path d="M0 0 C2.8455204 3.40833646 5.18211602 6.83466984 7.36328125 10.69921875 C8.31098389 12.36936035 8.31098389 12.36936035 9.27783203 14.07324219 C9.77455414 14.95562561 9.77455414 14.95562561 10.28131104 15.85583496 C11.69401158 18.36516574 13.11650093 20.86890297 14.53820801 23.37313843 C15.27366346 24.66893019 16.00860393 25.96501438 16.74304199 27.26138306 C20.33957716 33.60869601 23.97652253 39.93240862 27.625 46.25 C28.24084961 47.31677979 28.85669922 48.38355957 29.49121094 49.48266602 C33.665406 56.70626319 37.85823583 63.91886766 42.0625 71.125 C42.62614258 72.09163574 43.18978516 73.05827148 43.77050781 74.05419922 C46.8309596 79.29856563 49.90352995 84.53551169 52.98828125 89.765625 C53.63853271 90.87147949 54.28878418 91.97733398 54.95874023 93.11669922 C56.21375816 95.25066141 57.4722566 97.38258137 58.73461914 99.51220703 C59.57367798 100.94089111 59.57367798 100.94089111 60.4296875 102.3984375 C60.92710449 103.24067871 61.42452148 104.08291992 61.93701172 104.95068359 C63 107 63 107 63 109 C21.75 109 -19.5 109 -62 109 C-60.34684447 104.04053342 -58.48551469 100.13671886 -55.8125 95.75 C-54.90628644 94.23643414 -54.00142733 92.72205681 -53.09765625 91.20703125 C-52.35539795 89.96493896 -52.35539795 89.96493896 -51.59814453 88.69775391 C-48.60113387 83.63863875 -45.68082352 78.53514183 -42.75 73.4375 C-37.88282142 64.98301239 -32.9897345 56.54461888 -28.0625 48.125 C-24.2561319 41.62015663 -20.47629334 35.1012434 -16.7421875 28.5546875 C-16.38299728 27.92499054 -16.02380707 27.29529358 -15.6537323 26.64651489 C-13.90485931 23.57872881 -12.15882898 20.50935917 -10.41625977 17.43798828 C-7.06258993 11.5425224 -3.65019212 5.71699957 0 0 Z " fill="#FA78B3" transform="translate(627,297)"/>
<path d="M0 0 C0.33 0.66 0.66 1.32 1 2 C-0.27263145 4.61994054 -1.61140014 7.10473994 -3.0625 9.625 C-3.51149658 10.41841797 -3.96049316 11.21183594 -4.4230957 12.02929688 C-9.30427732 20.618196 -14.30406855 29.13975881 -19.296875 37.6640625 C-23.03634589 44.05281992 -26.74125034 50.46116076 -30.4375 56.875 C-31.05971436 57.95458984 -31.68192871 59.03417969 -32.32299805 60.14648438 C-33.58511517 62.3368252 -34.84707785 64.52725502 -36.10888672 66.71777344 C-39.85946399 73.22729589 -43.61501989 79.7339478 -47.37036133 86.24072266 C-50.52385162 91.70534663 -53.6746704 97.17147902 -56.8203125 102.640625 C-64.78647208 116.4833929 -72.8384055 130.27150141 -81 144 C-84.43862009 139.99346302 -86.89000546 135.80711358 -89.375 131.1875 C-93.36551167 123.88953043 -97.48206602 116.67619114 -101.6875 109.5 C-102.87374735 107.47268518 -104.05994422 105.44534081 -105.24609375 103.41796875 C-105.85308105 102.38075684 -106.46006836 101.34354492 -107.08544922 100.27490234 C-110.14845686 95.03552661 -113.20432289 89.79209672 -116.2472229 84.54101562 C-117.22967297 82.84753828 -118.21575112 81.15616737 -119.2019043 79.46484375 C-119.80043213 78.43101562 -120.39895996 77.3971875 -121.015625 76.33203125 C-121.54446289 75.42171143 -122.07330078 74.5113916 -122.61816406 73.57348633 C-124 71 -124 71 -125.06152344 68.22924805 C-125.78403621 65.83680024 -125.78403621 65.83680024 -128 65 C-87.05426648 40.33126936 -44.52154311 17.57853982 0 0 Z " fill="#FC7BB5" transform="translate(673,171)"/>
<path d="M0 0 C0.66 0 1.32 0 2 0 C-4.13758426 39.98080055 -11.79926453 79.79995668 -24.18579102 118.3659668 C-25.10462442 121.33846864 -25.93415206 124.33002333 -26.765625 127.328125 C-29.49154319 136.93204365 -32.71503034 146.36578858 -35.9375 155.8125 C-36.26170929 156.76612427 -36.58591858 157.71974854 -36.91995239 158.70227051 C-43.0526181 176.69883696 -49.79092893 194.40935073 -57 212 C-59.30552433 209.04996214 -61.22399315 206.01454714 -63.08203125 202.765625 C-63.67822266 201.72760742 -64.27441406 200.68958984 -64.88867188 199.62011719 C-65.52353516 198.50797852 -66.15839844 197.39583984 -66.8125 196.25 C-68.15121774 193.90559528 -69.49054357 191.56156799 -70.83203125 189.21875 C-71.17356232 188.62205505 -71.51509338 188.02536011 -71.86697388 187.4105835 C-74.23446749 183.29037476 -76.66826549 179.21681738 -79.13671875 175.15625 C-80.11064575 173.53928223 -80.11064575 173.53928223 -81.10424805 171.88964844 C-82.3462585 169.83269358 -83.60120834 167.78348363 -84.87036133 165.74316406 C-85.42876709 164.81213867 -85.98717285 163.88111328 -86.5625 162.921875 C-87.30693359 161.70902832 -87.30693359 161.70902832 -88.06640625 160.47167969 C-89.30191555 157.20068173 -88.919396 155.35112006 -88 152 C-86.74755859 149.34472656 -86.74755859 149.34472656 -85.1484375 146.640625 C-84.25415039 145.11115234 -84.25415039 145.11115234 -83.34179688 143.55078125 C-82.36823242 141.91689453 -82.36823242 141.91689453 -81.375 140.25 C-80.69497822 139.09302648 -80.01595953 137.93546287 -79.33789062 136.77734375 C-77.92932676 134.37334852 -76.51649359 131.97194227 -75.10058594 129.57226562 C-71.85983022 124.0716512 -68.68333677 118.53396591 -65.5 113 C-64.25030108 110.83315966 -63.00030011 108.6664935 -61.75 106.5 C-61.13125 105.4275 -60.5125 104.355 -59.875 103.25 C-53 91.33333333 -46.125 79.41666667 -39.25 67.5 C-38.63108887 66.42717773 -38.01217773 65.35435547 -37.37451172 64.24902344 C-36.12628966 62.08552524 -34.87791761 59.92211357 -33.62939453 57.75878906 C-30.47594744 52.29434983 -27.32523904 46.82836355 -24.1796875 41.359375 C-21.07330256 35.96004027 -17.95899567 30.56536088 -14.83740234 25.17480469 C-13.59354286 23.02556887 -12.35173973 20.87514186 -11.11181641 18.72363281 C-9.31122794 15.60298822 -7.50078076 12.48828239 -5.6875 9.375 C-5.14206543 8.42592773 -4.59663086 7.47685547 -4.03466797 6.49902344 C-3.53209473 5.64083008 -3.02952148 4.78263672 -2.51171875 3.8984375 C-2.07303467 3.14224121 -1.63435059 2.38604492 -1.18237305 1.60693359 C-0.59709839 0.81150146 -0.59709839 0.81150146 0 0 Z " fill="#FC7BB5" transform="translate(1933,1165)"/>
<path d="M0 0 C1.82867363 0.01665459 1.82867363 0.01665459 3.69429016 0.03364563 C4.36772461 0.0329155 5.04115906 0.03218536 5.73500061 0.03143311 C7.95963778 0.03491506 10.18217741 0.07379828 12.40644836 0.11299133 C13.94914608 0.12231746 15.4918586 0.12943452 17.03457642 0.13442993 C21.09396795 0.15351599 25.15246417 0.20262922 29.21150208 0.25794983 C33.35383491 0.3091085 37.49631251 0.33193665 41.63887024 0.35713196 C49.76623412 0.41074766 57.89287048 0.4960784 66.01972961 0.60127258 C60.83182135 12.32677307 55.50194437 23.9499777 49.7245636 35.39741516 C48.68469437 37.45843747 47.65163138 39.52277446 46.61933899 41.58760071 C43.55742953 47.68917048 40.41016515 53.66801039 37.01972961 59.60127258 C12.92972961 59.60127258 -11.16027039 59.60127258 -35.98027039 59.60127258 C-34.52904585 55.97321125 -33.10482853 52.85898474 -31.21464539 49.48799133 C-30.66075134 48.4983136 -30.1068573 47.50863586 -29.53617859 46.4889679 C-28.94022888 45.43290344 -28.34427917 44.37683899 -27.73027039 43.28877258 C-27.11562927 42.19532532 -26.50098816 41.10187805 -25.86772156 39.97529602 C-19.36490982 28.44446896 -12.71745146 16.99670635 -5.98027039 5.60127258 C-5.59398468 4.73901566 -5.20769897 3.87675873 -4.80970764 2.9883728 C-2.98027039 0.60127258 -2.98027039 0.60127258 0 0 Z " fill="#FC7BB5" transform="translate(1797.9802703857422,1403.3987274169922)"/>
<path d="M0 0 C4.61586119 2.28126644 9.22236262 4.57984044 13.81835938 6.90087891 C15.21609546 7.60506511 16.61567856 8.30560424 18.01757812 9.00146484 C19.83106207 9.90402185 21.63458695 10.82650787 23.4375 11.75 C24.48808594 12.28109375 25.53867188 12.8121875 26.62109375 13.359375 C29.46736101 15.32231794 29.25297249 15.79901202 30 19 C30.81643782 20.63235484 31.68585209 22.23867402 32.58984375 23.82421875 C33.12262939 24.76313965 33.65541504 25.70206055 34.2043457 26.66943359 C34.77628662 27.66539551 35.34822754 28.66135742 35.9375 29.6875 C36.80797974 31.21624756 36.80797974 31.21624756 37.69604492 32.77587891 C41.76427558 39.90155811 45.8927038 46.99136887 50.10327148 54.03393555 C53 58.89779559 53 58.89779559 53 60 C24.29 60 -4.42 60 -34 60 C-32.51508007 56.28770017 -31.03192692 53.09399307 -29.09375 49.640625 C-28.51963379 48.61549805 -27.94551758 47.59037109 -27.35400391 46.53417969 C-26.74218262 45.45040039 -26.13036133 44.36662109 -25.5 43.25 C-24.8714209 42.13270508 -24.2428418 41.01541016 -23.59521484 39.86425781 C-16.0031547 26.40639745 -8.16665287 13.11683073 0 0 Z " fill="#FE7CB6" transform="translate(1447,205)"/>
<path d="M0 0 C-0.46148438 0.80179688 -0.92296875 1.60359375 -1.3984375 2.4296875 C-5.31639816 9.25901814 -9.18633619 16.11184583 -13 23 C-17.26638335 30.70584607 -21.60619825 38.36607629 -26 46 C-26.66 46 -27.32 46 -28 46 C-28.38631592 45.32759277 -28.77263184 44.65518555 -29.1706543 43.96240234 C-30.66954093 41.35500794 -32.16938283 38.74816649 -33.6701355 36.1418457 C-34.34700814 34.96632846 -35.02370564 33.79071035 -35.70022583 32.61499023 C-39.39189603 26.20183494 -43.10309747 19.80253179 -46.890625 13.4453125 C-47.78841675 11.93831787 -47.78841675 11.93831787 -48.7043457 10.40087891 C-49.84483357 8.49197951 -50.98910392 6.58533407 -52.13745117 4.68115234 C-52.64767822 3.82730957 -53.15790527 2.9734668 -53.68359375 2.09375 C-54.13275146 1.34802734 -54.58190918 0.60230469 -55.04467773 -0.16601562 C-56 -2 -56 -2 -56 -4 C-51.07490829 -4.19437613 -46.14957289 -4.37272802 -41.22338867 -4.53710938 C-39.55233723 -4.59502586 -37.88142393 -4.65710002 -36.21069336 -4.72363281 C-23.3364819 -5.23228169 -12.20729001 -4.52121852 0 0 Z " fill="#FC7AB4" transform="translate(991,913)"/>
<path d="M0 0 C0.66 0.33 1.32 0.66 2 1 C-13.18 16.18 -28.36 31.36 -44 47 C-44.66 46.67 -45.32 46.34 -46 46 C-30.66666667 30.66666667 -15.33333333 15.33333333 0 0 Z " fill="#DFDFE0" transform="translate(325,274)"/>
</svg>
